<?xml version="1.0" encoding="utf-8"?>
<!-- Generator: Adobe Illustrator 27.5.0, SVG Export Plug-In . SVG Version: 6.00 Build 0)  -->
<svg version="1.1" id="Layer_1" xmlns="http://www.w3.org/2000/svg" xmlns:xlink="http://www.w3.org/1999/xlink" x="0px" y="0px"
	 viewBox="0 0 3246 2000" style="enable-background:new 0 0 3246 2000;" xml:space="preserve">
<g>
	<g>
		<rect style="fill:#FFFFFF;" width="3246" height="2000"/>
	</g>
</g>
<rect x="146.274" y="63.947" style="fill:#EAFCFC;" width="2979.02" height="1865.491"/>
<rect x="2265.138" y="1423.185" style="opacity:0.2;fill:#3CB4C5;" width="699.185" height="223.675"/>
<rect x="2265.138" y="792.805" style="opacity:0.2;fill:#3CB4C5;" width="699.185" height="223.674"/>
<g style="opacity:0.5;">
	<rect x="342.467" y="399.754" style="fill:#9BC1F9;" width="636.411" height="1260.016"/>
	<rect x="364.96" y="418.098" style="fill:#C5DDF9;" width="591.19" height="1221.92"/>
	<polygon style="fill:#FFFFFF;" points="616.93,1640.018 687.136,1640.018 920.628,418.098 850.423,418.098 	"/>
	<polygon style="fill:#FFFFFF;" points="710.908,418.098 566.202,418.098 364.96,1471.243 364.96,1640.018 477.415,1640.018 	"/>
</g>
<g style="opacity:0.5;">
	<g>
		<path style="fill:#50BFA5;" d="M1342.126,1523.248h-6.522v-25.177h-80.912v25.177h-6.522v-30.477c0-0.676,0.547-1.224,1.223-1.224
			h91.511c0.675,0,1.223,0.548,1.223,1.224V1523.248z"/>
	</g>
	<rect x="1242.686" y="1516.484" style="fill:#327F6B;" width="17.489" height="4.931"/>
	<rect x="1330.12" y="1516.484" style="fill:#327F6B;" width="17.489" height="4.931"/>
	<path style="fill:#96D9C9;" d="M1361.961,1641.007h-137.077c-5.949,0-10.772-4.823-10.772-10.772v-98.047
		c0-5.949,4.823-10.772,10.772-10.772h137.077c5.949,0,10.772,4.823,10.772,10.772v98.047
		C1372.733,1636.184,1367.91,1641.007,1361.961,1641.007z"/>
	<rect x="1240.248" y="1521.415" style="fill:#50BFA5;" width="22.364" height="119.592"/>
	<rect x="1327.683" y="1521.415" style="fill:#50BFA5;" width="22.364" height="119.592"/>
	<polygon style="fill:#FFFFFF;" points="1317.514,1575.303 1301.057,1575.303 1301.057,1558.844 1289.239,1558.844 
		1289.239,1575.303 1272.781,1575.303 1272.781,1587.12 1289.239,1587.12 1289.239,1603.578 1301.057,1603.578 1301.057,1587.12 
		1317.514,1587.12 	"/>
</g>
<rect x="1217.524" y="422.702" style="opacity:0.2;fill:#3CB4C5;" width="795.706" height="1496.162"/>
<rect x="1265.163" y="477.615" style="opacity:0.2;fill:#3CB4C5;" width="700.427" height="223.674"/>
<rect x="1265.163" y="792.805" style="opacity:0.2;fill:#3CB4C5;" width="700.427" height="223.674"/>
<rect x="1265.163" y="1107.995" style="opacity:0.2;fill:#3CB4C5;" width="700.427" height="223.674"/>
<rect x="1265.163" y="1423.185" style="opacity:0.2;fill:#3CB4C5;" width="700.427" height="223.675"/>
<g>
	<path style="fill:#F7A491;" d="M803.437,1855.463c-1.133-8.144,1.413-22.153,7.769-44.068c-12.588,0.029-23.173-5.561-36.038-5.365
		c-3.514,20.61-8.956,54.451-8.956,54.451l-0.583,26.753l89.581,0.675c0,0-0.746,0.386-27.156-16.351
		C826.101,1870.319,804.532,1863.332,803.437,1855.463z"/>
	<path style="fill:#3C8F7C;" d="M765.2,1894.109h92.476c3.42-0.31,4.253-3.108,3.068-4.833
		c-2.442-3.552-20.478-12.081-32.604-17.739c-21.27,2.244-58.654-6.536-62.011-11.479
		C760.295,1876.426,763.299,1893.687,765.2,1894.109z"/>
</g>
<g>
	<path style="fill:#F7A491;" d="M691.845,1855.463c-1.133-8.144-3.06-18.342-0.236-45.498c-12.588,0.029-24.568-2.339-37.433-2.144
		c0,21.2,0.443,52.659,0.443,52.659l-0.583,26.753l89.582,0.675c0,0-0.746,0.386-27.156-16.351
		C714.508,1870.319,692.94,1863.332,691.845,1855.463z"/>
	<path style="fill:#3C8F7C;" d="M653.607,1894.109h92.476c3.42-0.31,4.254-3.108,3.068-4.833
		c-2.442-3.552-20.478-12.081-32.604-17.739c-21.27,2.244-58.653-6.536-62.01-11.479
		C648.702,1876.426,651.706,1893.687,653.607,1894.109z"/>
</g>
<path style="fill:#F7A491;" d="M756.945,1079.592l33.695-35.655c0,0,36.067,19.894,78.113,38.903
	c11.559-20.178,30.423-86.552,31.438-89.718c1.018-3.176-22.096-43.047-16.925-44.046c5.17-1,11.883,21.293,17.348,19.033
	c5.465-2.259,19.517-53.976,22.806-51.154c6.154,5.282-7.392,32.167-4.147,34.126c3.244,1.958,11.472-29.801,17.737-28.447
	c6.265,1.354-10.579,28.914-8.731,31.563c1.849,2.649,19.453-23.206,23.09-17.217c1.975,3.252-16.239,22.514-12.493,24.669
	c3.747,2.155,20.162-9.977,22.121-6.047c1.96,3.931-15.316,8.025-20.113,17.972c-4.796,9.946-13.519,13.816-16.411,32.621
	c-2.89,18.786-10.807,119.307-31.234,127.377C875.401,1140.617,756.945,1079.592,756.945,1079.592z"/>
<path style="fill:#50BFA5;" d="M778.716,1271.908l-27.326,15.287l-55.543,85.18l99.333,234.497c0,0-11.187,35.264-14.832,52.883
	c-3.814,18.435-13.166,176.651-13.166,176.651l42.377,0.715c0,0,40.251-168.435,47.068-223.103
	c8.277-66.388-42.124-224.493-42.124-224.493c-9.399-32.258-29.664-98.618-29.664-98.618S779.881,1274.737,778.716,1271.908z"/>
<path style="fill:#50BFA5;" d="M683.604,1239.916c0,0-0.764,17.064-12.064,39.919c-6.889,13.933-15.2,27.83-23.721,44.897
	c-16.126,32.3-24.883,78.182-18.834,107.671c0,0,33.342,127.699,32.018,174.369c-0.488,17.21-6.374,48.218-10.141,69.18
	c-3.33,18.531-4.455,158.311-4.455,158.311l47.321-1.43l36.238-225.485l15.321-200.433l33.425-135.002L683.604,1239.916z"/>
<path style="fill:#184655;" d="M788.809,942.022c-4.37-20.699-8.88-41.473-29.387-56.382c-16.596-12.065-34.428-15.513-53.334-8.636
	c-53.566,19.485-24.754,62.122-91.228,107.566c-20.655,14.121-28.496,19.043-43.319,37.861
	c-20.749,26.339-32.088,61.68-21.659,90.772c21.568,60.167,88.402,77.55,123.364,64.793
	c65.076-23.745,119.29-106.521,122.893-129.109C799.995,1024.711,791.622,955.347,788.809,942.022z"/>
<path style="fill:#F48C7F;" d="M496.128,1389.223c4.338-3.339,9.346-1.543,24.184-7.689c2.875-1.19,10.375-2.963,13.725-3.5
	c0.628-0.102,1.141-0.554,1.328-1.162c5.105-16.571,27.628-93.233,30.659-115.479c3.1-22.75,21.742-118.978,24.583-133.607
	c0.193-0.996,1.213-1.594,2.179-1.281l41.839,13.51c0.858,0.277,1.349,1.176,1.115,2.046c-3.08,11.435-22.273,83.24-28.534,119.72
	c-4.99,29.083-52.335,121.116-53.451,127.079c-0.011,0.056-0.021,0.111-0.031,0.167c-0.335,1.794-1.936,3.067-3.76,2.993
	c-10.745-0.437-45.193-1.835-47.158-1.904C501.014,1390.051,494.772,1390.267,496.128,1389.223z"/>
<path style="fill:#96D9C9;" d="M793.772,1101.992c15.08,6.991,42.39,17.488,42.39,17.488l15.538-49.289
	c-87.82-50.104-80.931-42.021-146.844-41.035c-52.657,0.753-74.726-9.332-120.07,113.441c0,0,34.518,15.555,46.878,20.547
	c5.315-15.176,14.921-45.444,20.522-28.188c8.462,26.069,14.661,52.389,18.817,79.481c2.64,16.062,8.384,36.62,5.365,52.984
	c0,0,35.862,7.405,63.254,8.611c0.077,0.004,0.156,0.008,0.234-0.005c13.237-0.338,26.792-1.509,38.862-4.119
	c0,0,5.37-113.891,8.24-118.644c3.179-5.263,16.598-22.264,5.18-47.691C790.118,1101.079,790.662,1100.55,793.772,1101.992z"/>
<path style="fill:#F7A491;" d="M713.107,978.46c0,0-4.194,33.966-6.667,45.758c-2.586,12.339-6.478,51.195,19.032,57.505
	s17.626-42.279,18.048-54.825c0.422-12.546,7.651-56.293,7.651-56.293L713.107,978.46z"/>
<path style="fill:#F47458;" d="M711.72,989.298c0.26,0.156,0.502,0.324,0.768,0.477c14.098,8.107,26.371,6.828,35.581,0.518
	c1.645-10.858,3.103-19.688,3.103-19.688l-38.064,7.856C713.107,978.46,712.548,982.986,711.72,989.298z"/>
<path style="fill:#F7A491;" d="M720.777,890.009c0,0-14.949,4.216-23.568,19.105c-8.62,14.889-12.92,57.65,18.81,75.897
	c31.729,18.246,54.251-10.988,53.292-38.337C768.351,919.324,760.754,883.146,720.777,890.009z"/>
<path style="fill:#F7A491;" d="M776.321,934.937c0.352,7.109-2.68,13.04-6.773,13.247c-4.093,0.208-7.696-5.387-8.048-12.495
	c-0.352-7.108,2.68-13.039,6.772-13.247C772.365,922.234,775.969,927.828,776.321,934.937z"/>
<path style="fill:#184655;" d="M725.269,888.883c0,0-17.105,44.724-33.845,49.491c-16.74,4.767-15.403,26.766-15.403,26.766
	s-2.143-50.851,13.148-63.316C704.46,889.359,725.269,888.883,725.269,888.883z"/>
<path style="fill:#F7A491;" d="M698.603,947.125c2.582,6.991,0.889,14.089-3.781,15.855c-4.67,1.766-10.549-2.47-13.131-9.461
	c-2.581-6.991-0.889-14.089,3.782-15.855C690.143,935.898,696.021,940.134,698.603,947.125z"/>
<rect x="669.441" y="1098.779" transform="matrix(0.997 -0.077 0.077 0.997 -83.4534 56.6942)" style="fill:#FFFFFF;" width="47.896" height="23.305"/>
<polygon style="fill:#184655;" points="1045.85,1259.221 1050.33,1369 1101.855,1369 1061.021,1265.195 "/>
<path style="fill:#184655;" d="M926.575,1152.063h231.75c2.475,0,4.48,2.006,4.48,4.48v177.739c0,2.475-2.006,4.48-4.48,4.48
	h-231.75c-2.475,0-4.481-2.006-4.481-4.48v-177.739C922.095,1154.069,924.101,1152.063,926.575,1152.063z"/>
<path style="fill:#184655;" d="M1089.864,1144.766h79.635c1.104,0,2-0.895,2-2v-35.556c0-1.104-0.896-2-2-2h-79.635
	c-1.104,0-2,0.896-2,2v35.556C1087.864,1143.871,1088.76,1144.766,1089.864,1144.766z"/>
<rect x="1124.641" y="1132.741" transform="matrix(-1 -1.224647e-16 1.224647e-16 -1 2256.0029 2290.125)" style="fill:#184655;" width="6.721" height="24.643"/>
<path style="fill:#FFFFFF;" d="M750.945,960.43l-24.742,3.545c0,0,1.917,9.316,12.842,8.071
	C752.367,970.528,750.945,960.43,750.945,960.43z"/>
<rect x="2216.877" y="422.702" style="opacity:0.2;fill:#3CB4C5;" width="795.706" height="1496.162"/>
<g style="opacity:0.5;">
	<path style="fill:#327F6B;" d="M1619.741,536.786h-32.609c-4.56,0-8.255,3.696-8.255,8.255v18.745c0,4.559,3.696,8.255,8.255,8.255
		h32.609c4.56,0,8.256-3.696,8.256-8.255v-18.745C1627.997,540.481,1624.301,536.786,1619.741,536.786z"/>
	<path style="fill:#327F6B;" d="M1638.44,696.078h-70.304c-1.197,0-2.167-0.97-2.167-2.166V692.6c0-1.197,0.97-2.167,2.167-2.167
		h70.304c1.196,0,2.166,0.97,2.166,2.167v1.312C1640.606,695.108,1639.637,696.078,1638.44,696.078z"/>
	<path style="fill:#50BFA5;" d="M1640.425,578.775h-4.406v-4.782c0-0.985,0.798-1.783,1.782-1.783l0,0
		c0.984,0,1.782-0.798,1.782-1.782v-7.448c0-0.984-0.798-1.783-1.782-1.783h-68.728c-0.985,0-1.783,0.798-1.783,1.783v7.448
		c0,0.984,0.798,1.782,1.783,1.782c0.984,0,1.782,0.798,1.782,1.783v4.782h-4.407c-7.247,0-13.122,5.875-13.122,13.122v88.237
		c0,7.247,5.875,13.122,13.122,13.122h73.977c7.247,0,13.122-5.875,13.122-13.122v-88.237
		C1653.547,584.65,1647.672,578.775,1640.425,578.775z"/>
	<path style="opacity:0.5;fill:#FFFFFF;" d="M1634.755,651.267h-62.636c-5.019,0-9.087-4.068-9.087-9.087v-31.342
		c0-5.019,4.068-9.087,9.087-9.087h62.636c5.019,0,9.087,4.068,9.087,9.087v31.342
		C1643.842,647.198,1639.773,651.267,1634.755,651.267z"/>
	<path style="fill:#50BFA5;" d="M1568.318,572.041h70.236c0.607-0.284,1.028-0.899,1.028-1.613v-7.448
		c0-0.984-0.798-1.783-1.782-1.783h-68.728c-0.985,0-1.783,0.798-1.783,1.783v7.448
		C1567.29,571.142,1567.711,571.757,1568.318,572.041z"/>
</g>
<g style="opacity:0.5;">
	<path style="fill:#327F6B;" d="M1745.646,536.786h-32.609c-4.56,0-8.256,3.696-8.256,8.255v18.745c0,4.559,3.696,8.255,8.256,8.255
		h32.609c4.559,0,8.255-3.696,8.255-8.255v-18.745C1753.9,540.481,1750.204,536.786,1745.646,536.786z"/>
	<path style="fill:#327F6B;" d="M1764.344,696.078h-70.304c-1.196,0-2.167-0.97-2.167-2.166V692.6c0-1.197,0.971-2.167,2.167-2.167
		h70.304c1.197,0,2.167,0.97,2.167,2.167v1.312C1766.511,695.108,1765.541,696.078,1764.344,696.078z"/>
	<path style="fill:#50BFA5;" d="M1766.329,578.775h-4.407v-4.782c0-0.985,0.798-1.783,1.783-1.783l0,0
		c0.984,0,1.782-0.798,1.782-1.782v-7.448c0-0.984-0.798-1.783-1.782-1.783h-68.729c-0.984,0-1.782,0.798-1.782,1.783v7.448
		c0,0.984,0.798,1.782,1.782,1.782s1.782,0.798,1.782,1.783v4.782h-4.407c-7.246,0-13.121,5.875-13.121,13.122v88.237
		c0,7.247,5.875,13.122,13.121,13.122h73.978c7.247,0,13.122-5.875,13.122-13.122v-88.237
		C1779.451,584.65,1773.576,578.775,1766.329,578.775z"/>
	<path style="opacity:0.5;fill:#FFFFFF;" d="M1760.658,651.267h-62.636c-5.019,0-9.087-4.068-9.087-9.087v-31.342
		c0-5.019,4.068-9.087,9.087-9.087h62.636c5.019,0,9.088,4.068,9.088,9.087v31.342
		C1769.746,647.198,1765.677,651.267,1760.658,651.267z"/>
	<path style="fill:#50BFA5;" d="M1694.223,572.041h70.236c0.607-0.284,1.028-0.899,1.028-1.613v-7.448
		c0-0.984-0.798-1.783-1.782-1.783h-68.729c-0.984,0-1.782,0.798-1.782,1.783v7.448
		C1693.194,571.142,1693.615,571.757,1694.223,572.041z"/>
</g>
<g style="opacity:0.5;">
	<path style="fill:#327F6B;" d="M1869.705,536.786h-32.609c-4.56,0-8.256,3.696-8.256,8.255v18.745c0,4.559,3.696,8.255,8.256,8.255
		h32.609c4.559,0,8.255-3.696,8.255-8.255v-18.745C1877.96,540.481,1874.264,536.786,1869.705,536.786z"/>
	<path style="fill:#327F6B;" d="M1888.403,696.078H1818.1c-1.196,0-2.166-0.97-2.166-2.166V692.6c0-1.197,0.97-2.167,2.166-2.167
		h70.305c1.196,0,2.166,0.97,2.166,2.167v1.312C1890.57,695.108,1889.601,696.078,1888.403,696.078z"/>
	<path style="fill:#50BFA5;" d="M1890.389,578.775h-4.407v-4.782c0-0.985,0.798-1.783,1.783-1.783l0,0
		c0.984,0,1.782-0.798,1.782-1.782v-7.448c0-0.984-0.798-1.783-1.782-1.783h-68.729c-0.984,0-1.782,0.798-1.782,1.783v7.448
		c0,0.984,0.798,1.782,1.782,1.782s1.782,0.798,1.782,1.783v4.782h-4.406c-7.247,0-13.122,5.875-13.122,13.122v88.237
		c0,7.247,5.875,13.122,13.122,13.122h73.977c7.247,0,13.122-5.875,13.122-13.122v-88.237
		C1903.511,584.65,1897.636,578.775,1890.389,578.775z"/>
	<path style="opacity:0.5;fill:#FFFFFF;" d="M1884.718,651.267h-62.636c-5.019,0-9.087-4.068-9.087-9.087v-31.342
		c0-5.019,4.068-9.087,9.087-9.087h62.637c5.018,0,9.086,4.068,9.086,9.087v31.342
		C1893.805,647.198,1889.736,651.267,1884.718,651.267z"/>
	<path style="fill:#50BFA5;" d="M1818.282,572.041h70.236c0.607-0.284,1.028-0.899,1.028-1.613v-7.448
		c0-0.984-0.798-1.783-1.782-1.783h-68.729c-0.984,0-1.782,0.798-1.782,1.783v7.448
		C1817.254,571.142,1817.675,571.757,1818.282,572.041z"/>
</g>
<g style="opacity:0.5;">
	<path style="fill:#327F6B;" d="M2367.819,851.976h-32.609c-4.56,0-8.256,3.696-8.256,8.255v18.745c0,4.559,3.696,8.255,8.256,8.255
		h32.609c4.56,0,8.255-3.696,8.255-8.255v-18.745C2376.074,855.671,2372.379,851.976,2367.819,851.976z"/>
	<path style="fill:#327F6B;" d="M2386.518,1011.269h-70.304c-1.196,0-2.167-0.97-2.167-2.167v-1.312
		c0-1.196,0.971-2.167,2.167-2.167h70.304c1.197,0,2.167,0.971,2.167,2.167v1.312
		C2388.685,1010.299,2387.715,1011.269,2386.518,1011.269z"/>
	<path style="fill:#50BFA5;" d="M2388.503,893.965h-4.407v-4.782c0-0.984,0.799-1.783,1.783-1.783l0,0
		c0.984,0,1.782-0.798,1.782-1.783v-7.448c0-0.984-0.798-1.783-1.782-1.783h-68.729c-0.984,0-1.783,0.798-1.783,1.783v7.448
		c0,0.985,0.799,1.783,1.783,1.783s1.782,0.798,1.782,1.783v4.782h-4.406c-7.247,0-13.122,5.875-13.122,13.122v88.237
		c0,7.247,5.875,13.122,13.122,13.122h73.977c7.247,0,13.122-5.875,13.122-13.122v-88.237
		C2401.625,899.84,2395.75,893.965,2388.503,893.965z"/>
	<path style="opacity:0.5;fill:#FFFFFF;" d="M2382.832,966.456h-62.636c-5.019,0-9.087-4.068-9.087-9.087v-31.342
		c0-5.018,4.068-9.087,9.087-9.087h62.636c5.02,0,9.088,4.068,9.088,9.087v31.342
		C2391.92,962.388,2387.852,966.456,2382.832,966.456z"/>
	<path style="fill:#50BFA5;" d="M2316.396,887.231h70.236c0.607-0.285,1.028-0.899,1.028-1.614v-7.448
		c0-0.984-0.798-1.783-1.782-1.783h-68.729c-0.984,0-1.783,0.798-1.783,1.783v7.448
		C2315.367,886.332,2315.789,886.946,2316.396,887.231z"/>
</g>
<g style="opacity:0.5;">
	<path style="fill:#327F6B;" d="M2554.285,1480.678h-32.609c-4.559,0-8.255,3.695-8.255,8.255v18.745
		c0,4.559,3.696,8.255,8.255,8.255h32.609c4.56,0,8.256-3.696,8.256-8.255v-18.745
		C2562.541,1484.373,2558.845,1480.678,2554.285,1480.678z"/>
	<path style="fill:#327F6B;" d="M2572.984,1639.971h-70.305c-1.196,0-2.166-0.971-2.166-2.167v-1.312
		c0-1.197,0.97-2.167,2.166-2.167h70.305c1.196,0,2.166,0.97,2.166,2.167v1.312C2575.15,1639,2574.181,1639.971,2572.984,1639.971z"
		/>
	<path style="fill:#50BFA5;" d="M2574.969,1522.667h-4.406v-4.782c0-0.984,0.798-1.783,1.782-1.783l0,0
		c0.984,0,1.782-0.798,1.782-1.782v-7.448c0-0.984-0.798-1.782-1.782-1.782h-68.728c-0.984,0-1.783,0.798-1.783,1.782v7.448
		c0,0.984,0.799,1.782,1.783,1.782s1.782,0.799,1.782,1.783v4.782h-4.407c-7.247,0-13.121,5.875-13.121,13.122v88.237
		c0,7.247,5.874,13.121,13.121,13.121h73.977c7.247,0,13.122-5.874,13.122-13.121v-88.237
		C2588.091,1528.542,2582.216,1522.667,2574.969,1522.667z"/>
	<path style="opacity:0.5;fill:#FFFFFF;" d="M2569.299,1595.158h-62.636c-5.019,0-9.087-4.068-9.087-9.087v-31.342
		c0-5.019,4.068-9.087,9.087-9.087h62.636c5.019,0,9.087,4.068,9.087,9.087v31.342
		C2578.386,1591.09,2574.317,1595.158,2569.299,1595.158z"/>
	<path style="fill:#50BFA5;" d="M2502.862,1515.933h70.237c0.606-0.284,1.027-0.898,1.027-1.613v-7.448
		c0-0.984-0.798-1.782-1.782-1.782h-68.728c-0.984,0-1.783,0.798-1.783,1.782v7.448
		C2501.834,1515.034,2502.256,1515.648,2502.862,1515.933z"/>
</g>
<g style="opacity:0.5;">
	<path style="fill:#327F6B;" d="M2674.099,1480.678h-32.608c-4.56,0-8.256,3.695-8.256,8.255v18.745
		c0,4.559,3.696,8.255,8.256,8.255h32.608c4.56,0,8.256-3.696,8.256-8.255v-18.745
		C2682.354,1484.373,2678.658,1480.678,2674.099,1480.678z"/>
	<path style="fill:#327F6B;" d="M2692.798,1639.971h-70.304c-1.197,0-2.167-0.971-2.167-2.167v-1.312
		c0-1.197,0.97-2.167,2.167-2.167h70.304c1.196,0,2.167,0.97,2.167,2.167v1.312C2694.965,1639,2693.994,1639.971,2692.798,1639.971z
		"/>
	<path style="fill:#50BFA5;" d="M2694.783,1522.667h-4.407v-4.782c0-0.984,0.798-1.783,1.782-1.783l0,0
		c0.984,0,1.783-0.798,1.783-1.782v-7.448c0-0.984-0.799-1.782-1.783-1.782h-68.728c-0.985,0-1.783,0.798-1.783,1.782v7.448
		c0,0.984,0.798,1.782,1.783,1.782c0.984,0,1.782,0.799,1.782,1.783v4.782h-4.407c-7.247,0-13.122,5.875-13.122,13.122v88.237
		c0,7.247,5.875,13.121,13.122,13.121h73.978c7.246,0,13.121-5.874,13.121-13.121v-88.237
		C2707.904,1528.542,2702.029,1522.667,2694.783,1522.667z"/>
	<path style="opacity:0.5;fill:#FFFFFF;" d="M2689.112,1595.158h-62.636c-5.02,0-9.088-4.068-9.088-9.087v-31.342
		c0-5.019,4.068-9.087,9.088-9.087h62.636c5.019,0,9.087,4.068,9.087,9.087v31.342
		C2698.199,1591.09,2694.131,1595.158,2689.112,1595.158z"/>
	<path style="fill:#50BFA5;" d="M2622.676,1515.933h70.237c0.606-0.284,1.028-0.898,1.028-1.613v-7.448
		c0-0.984-0.799-1.782-1.783-1.782h-68.728c-0.985,0-1.783,0.798-1.783,1.782v7.448
		C2621.647,1515.034,2622.069,1515.648,2622.676,1515.933z"/>
</g>
<g style="opacity:0.5;">
	<path style="fill:#327F6B;" d="M2898.12,851.976h-32.608c-4.56,0-8.256,3.696-8.256,8.255v18.745c0,4.559,3.696,8.255,8.256,8.255
		h32.608c4.56,0,8.256-3.696,8.256-8.255v-18.745C2906.376,855.671,2902.68,851.976,2898.12,851.976z"/>
	<path style="fill:#327F6B;" d="M2916.819,1011.269h-70.304c-1.197,0-2.167-0.97-2.167-2.167v-1.312c0-1.196,0.97-2.167,2.167-2.167
		h70.304c1.196,0,2.167,0.971,2.167,2.167v1.312C2918.986,1010.299,2918.016,1011.269,2916.819,1011.269z"/>
	<path style="fill:#50BFA5;" d="M2918.805,893.965h-4.407v-4.782c0-0.984,0.798-1.783,1.782-1.783l0,0
		c0.984,0,1.783-0.798,1.783-1.783v-7.448c0-0.984-0.799-1.783-1.783-1.783h-68.728c-0.985,0-1.783,0.798-1.783,1.783v7.448
		c0,0.985,0.798,1.783,1.783,1.783c0.984,0,1.782,0.798,1.782,1.783v4.782h-4.406c-7.248,0-13.122,5.875-13.122,13.122v88.237
		c0,7.247,5.874,13.122,13.122,13.122h73.977c7.246,0,13.121-5.875,13.121-13.122v-88.237
		C2931.926,899.84,2926.051,893.965,2918.805,893.965z"/>
	<path style="opacity:0.5;fill:#FFFFFF;" d="M2913.134,966.456h-62.636c-5.019,0-9.088-4.068-9.088-9.087v-31.342
		c0-5.018,4.069-9.087,9.088-9.087h62.636c5.019,0,9.087,4.068,9.087,9.087v31.342
		C2922.221,962.388,2918.152,966.456,2913.134,966.456z"/>
	<path style="fill:#50BFA5;" d="M2846.697,887.231h70.237c0.606-0.285,1.028-0.899,1.028-1.614v-7.448
		c0-0.984-0.799-1.783-1.783-1.783h-68.728c-0.985,0-1.783,0.798-1.783,1.783v7.448
		C2845.669,886.332,2846.091,886.946,2846.697,887.231z"/>
</g>
<rect x="2265.138" y="477.615" style="opacity:0.2;fill:#3CB4C5;" width="699.185" height="223.674"/>
<rect x="2265.138" y="1107.995" style="opacity:0.2;fill:#3CB4C5;" width="699.185" height="223.674"/>
<polygon style="opacity:0.5;fill:#9BC1F9;" points="1922.764,257.443 1894.229,257.443 1894.229,68.275 1884.865,68.275 
	1884.865,257.443 1349.487,257.443 1349.487,68.275 1340.124,68.275 1340.124,257.443 1306.009,257.443 1270.421,325.121 
	1958.353,325.121 "/>
<polygon style="opacity:0.5;fill:#9BC1F9;" points="969.05,257.443 940.515,257.443 940.515,68.275 931.151,68.275 931.151,257.443 
	395.773,257.443 395.773,68.275 386.41,68.275 386.41,257.443 352.295,257.443 316.706,325.121 1004.638,325.121 "/>
<polygon style="opacity:0.5;fill:#9BC1F9;" points="2887.934,257.443 2859.397,257.443 2859.397,68.275 2850.034,68.275 
	2850.034,257.443 2314.656,257.443 2314.656,68.275 2305.293,68.275 2305.293,257.443 2271.178,257.443 2235.59,325.121 
	2923.521,325.121 "/>
<rect x="69.753" y="55.074" transform="matrix(-1 -1.224647e-16 1.224647e-16 -1 3230.7534 127.894)" style="opacity:0.5;fill:#9BC1F9;" width="3091.247" height="17.746"/>
<g style="opacity:0.5;">
	<g>
		<path style="fill:#50BFA5;" d="M1429.678,893.51h-6.523v-25.177h-80.912v25.177h-6.523v-30.477c0-0.675,0.548-1.223,1.223-1.223
			h91.511c0.675,0,1.223,0.548,1.223,1.224V893.51z"/>
	</g>
	<rect x="1330.237" y="886.745" style="fill:#327F6B;" width="17.489" height="4.932"/>
	<rect x="1417.672" y="886.745" style="fill:#327F6B;" width="17.489" height="4.932"/>
	<path style="fill:#96D9C9;" d="M1449.513,1011.269h-137.077c-5.95,0-10.772-4.823-10.772-10.773v-98.047
		c0-5.95,4.823-10.772,10.772-10.772h137.077c5.95,0,10.772,4.823,10.772,10.772v98.047
		C1460.285,1006.445,1455.462,1011.269,1449.513,1011.269z"/>
	<rect x="1327.8" y="891.677" style="fill:#50BFA5;" width="22.364" height="119.592"/>
	<rect x="1415.234" y="891.677" style="fill:#50BFA5;" width="22.364" height="119.592"/>
	<polygon style="fill:#FFFFFF;" points="1405.066,945.563 1388.608,945.563 1388.608,929.106 1376.791,929.106 1376.791,945.563 
		1360.333,945.563 1360.333,957.381 1376.791,957.381 1376.791,973.839 1388.608,973.839 1388.608,957.381 1405.066,957.381 	"/>
</g>
<g style="opacity:0.5;">
	<g>
		<path style="fill:#50BFA5;" d="M1615.994,893.51h-6.523v-25.177h-80.912v25.177h-6.523v-30.477c0-0.675,0.548-1.223,1.224-1.223
			h91.511c0.676,0,1.224,0.548,1.224,1.224V893.51z"/>
	</g>
	<rect x="1516.553" y="886.745" style="fill:#327F6B;" width="17.489" height="4.932"/>
	<rect x="1603.988" y="886.745" style="fill:#327F6B;" width="17.489" height="4.932"/>
	<path style="fill:#96D9C9;" d="M1635.828,1011.269h-137.077c-5.949,0-10.772-4.823-10.772-10.773v-98.047
		c0-5.95,4.823-10.772,10.772-10.772h137.077c5.95,0,10.773,4.823,10.773,10.772v98.047
		C1646.602,1006.445,1641.778,1011.269,1635.828,1011.269z"/>
	<rect x="1514.116" y="891.677" style="fill:#50BFA5;" width="22.364" height="119.592"/>
	<rect x="1601.55" y="891.677" style="fill:#50BFA5;" width="22.364" height="119.592"/>
	<polygon style="fill:#FFFFFF;" points="1591.382,945.563 1574.924,945.563 1574.924,929.106 1563.106,929.106 1563.106,945.563 
		1546.648,945.563 1546.648,957.381 1563.106,957.381 1563.106,973.839 1574.924,973.839 1574.924,957.381 1591.382,957.381 	"/>
</g>
<g style="opacity:0.5;">
	<path style="fill:#50BFA5;" d="M1342.812,696.078h-47.738c-6.308,0-11.422-5.113-11.422-11.421v-92.171
		c0-6.308,5.114-11.422,11.422-11.422h47.738c6.308,0,11.422,5.114,11.422,11.421v92.171
		C1354.233,690.965,1349.12,696.078,1342.812,696.078z"/>
	<path style="fill:#96D9C9;" d="M1337.5,575.884h-35.063c-2.179,0-3.944,1.766-3.944,3.944v1.236h42.952v-1.236
		C1341.444,577.649,1339.678,575.884,1337.5,575.884z"/>
</g>
<g style="opacity:0.5;">
	<path style="fill:#50BFA5;" d="M1430.241,696.078h-47.738c-6.309,0-11.422-5.113-11.422-11.421v-92.171
		c0-6.308,5.113-11.422,11.422-11.422h47.738c6.308,0,11.422,5.114,11.422,11.421v92.171
		C1441.663,690.965,1436.549,696.078,1430.241,696.078z"/>
	<path style="fill:#96D9C9;" d="M1424.929,575.884h-35.063c-2.178,0-3.944,1.766-3.944,3.944v1.236h42.952v-1.236
		C1428.874,577.649,1427.107,575.884,1424.929,575.884z"/>
</g>
<g style="opacity:0.5;">
	<path style="fill:#50BFA5;" d="M1517.67,696.078h-47.738c-6.308,0-11.422-5.113-11.422-11.421v-92.171
		c0-6.308,5.114-11.422,11.422-11.422h47.738c6.308,0,11.422,5.114,11.422,11.421v92.171
		C1529.092,690.965,1523.978,696.078,1517.67,696.078z"/>
	<path style="fill:#96D9C9;" d="M1512.358,575.884h-35.063c-2.179,0-3.944,1.766-3.944,3.944v1.236h42.952v-1.236
		C1516.303,577.649,1514.537,575.884,1512.358,575.884z"/>
</g>
<g style="opacity:0.5;">
	<path style="fill:#50BFA5;" d="M1634.411,1641.648h-47.738c-6.308,0-11.421-5.114-11.421-11.422v-92.172
		c0-6.308,5.113-11.421,11.421-11.421h47.739c6.308,0,11.421,5.113,11.421,11.421v92.172
		C1645.833,1636.534,1640.72,1641.648,1634.411,1641.648z"/>
	<path style="fill:#96D9C9;" d="M1629.1,1521.453h-35.063c-2.179,0-3.945,1.766-3.945,3.944v1.236h42.952v-1.236
		C1633.044,1523.219,1631.278,1521.453,1629.1,1521.453z"/>
</g>
<g style="opacity:0.5;">
	<path style="fill:#50BFA5;" d="M1543.632,1641.648h-47.738c-6.308,0-11.422-5.114-11.422-11.422v-92.172
		c0-6.308,5.114-11.421,11.422-11.421h47.738c6.308,0,11.422,5.113,11.422,11.421v92.172
		C1555.054,1636.534,1549.94,1641.648,1543.632,1641.648z"/>
	<path style="fill:#96D9C9;" d="M1538.32,1521.453h-35.063c-2.179,0-3.945,1.766-3.945,3.944v1.236h42.952v-1.236
		C1542.265,1523.219,1540.499,1521.453,1538.32,1521.453z"/>
</g>
<g style="opacity:0.5;">
	<path style="fill:#50BFA5;" d="M2575.827,1324.879h-53.437c-6.308,0-11.422-5.113-11.422-11.422v-101.456
		c0-6.308,5.114-11.422,11.422-11.422h53.437c6.308,0,11.422,5.114,11.422,11.422v101.456
		C2587.249,1319.766,2582.135,1324.879,2575.827,1324.879z"/>
	<path style="fill:#96D9C9;" d="M2569.482,1194.98h-38.53c-2.179,0-3.944,1.767-3.944,3.945v1.653h46.42v-1.653
		C2573.428,1196.747,2571.661,1194.98,2569.482,1194.98z"/>
</g>
<g style="opacity:0.5;">
	<path style="fill:#50BFA5;" d="M2477.719,1324.879h-53.437c-6.308,0-11.421-5.113-11.421-11.422v-101.456
		c0-6.308,5.113-11.422,11.421-11.422h53.437c6.309,0,11.422,5.114,11.422,11.422v101.456
		C2489.141,1319.766,2484.027,1324.879,2477.719,1324.879z"/>
	<path style="fill:#96D9C9;" d="M2471.375,1194.98h-38.531c-2.179,0-3.944,1.767-3.944,3.945v1.653h46.42v-1.653
		C2475.319,1196.747,2473.553,1194.98,2471.375,1194.98z"/>
</g>
<g style="opacity:0.5;">
	<path style="fill:#50BFA5;" d="M1452.853,1641.648h-47.738c-6.308,0-11.421-5.114-11.421-11.422v-92.172
		c0-6.308,5.113-11.421,11.421-11.421h47.738c6.308,0,11.421,5.113,11.421,11.421v92.172
		C1464.274,1636.534,1459.161,1641.648,1452.853,1641.648z"/>
	<path style="fill:#96D9C9;" d="M1447.541,1521.453h-35.063c-2.178,0-3.944,1.766-3.944,3.944v1.236h42.952v-1.236
		C1451.485,1523.219,1449.72,1521.453,1447.541,1521.453z"/>
</g>
<path style="opacity:0.5;fill:#EAFCFC;" d="M1338.557,615.817h-42.107c-1.594,0-2.887-1.292-2.887-2.887v-8.293
	c0-1.594,1.293-2.887,2.887-2.887h42.107c1.594,0,2.887,1.293,2.887,2.887v8.293
	C1341.444,614.524,1340.151,615.817,1338.557,615.817z"/>
<path style="opacity:0.5;fill:#EAFCFC;" d="M1427.425,615.817h-42.107c-1.595,0-2.887-1.292-2.887-2.887v-8.293
	c0-1.594,1.292-2.887,2.887-2.887h42.107c1.595,0,2.887,1.293,2.887,2.887v8.293C1430.313,614.524,1429.02,615.817,1427.425,615.817
	z"/>
<path style="opacity:0.5;fill:#EAFCFC;" d="M1516.294,615.817h-42.107c-1.595,0-2.887-1.292-2.887-2.887v-8.293
	c0-1.594,1.292-2.887,2.887-2.887h42.107c1.594,0,2.887,1.293,2.887,2.887v8.293
	C1519.181,614.524,1517.888,615.817,1516.294,615.817z"/>
<g>
	<g>
		<path style="fill:#EAFCFC;" d="M1970.802,706.5h-710.85V472.404h710.85V706.5z M1270.374,696.078h690.006V482.826h-690.006
			V696.078z"/>
	</g>
	<path style="opacity:0.4;fill:#EAFCFC;" d="M1265.163,701.29l246.49-223.674c0,0,169.068,0,166.752,0
		c-2.315,0-247.813,223.674-247.813,223.674H1265.163z"/>
	<path style="opacity:0.4;fill:#EAFCFC;" d="M1552.324,701.29l246.49-223.674c0,0,98.454,0,96.138,0S1658.72,701.29,1658.72,701.29
		H1552.324z"/>
</g>
<g>
	<ellipse style="opacity:0.5;fill:#96D9C9;" cx="1734.889" cy="961.437" rx="51.472" ry="49.832"/>
	<path style="opacity:0.5;fill:#327F6B;" d="M1734.889,911.606c4.835,0,9.508,0.659,13.944,1.866v-29.303
		c0-6.139-4.977-11.116-11.115-11.116h-5.658c-6.139,0-11.115,4.977-11.115,11.116v29.303
		C1725.381,912.265,1730.054,911.606,1734.889,911.606z"/>
</g>
<g>
	<ellipse style="opacity:0.5;fill:#96D9C9;" cx="1856.093" cy="961.437" rx="51.472" ry="49.832"/>
	<path style="opacity:0.5;fill:#327F6B;" d="M1856.093,911.606c4.835,0,9.508,0.659,13.944,1.866v-29.303
		c0-6.139-4.977-11.116-11.115-11.116h-5.658c-6.139,0-11.115,4.977-11.115,11.116v29.303
		C1846.585,912.265,1851.258,911.606,1856.093,911.606z"/>
</g>
<g>
	<path style="opacity:0.5;fill:#96D9C9;" d="M2392.494,1276.74c0,27.521-23.045,49.832-51.472,49.832s-51.472-22.311-51.472-49.832
		c0-27.521,23.045-49.831,51.472-49.831S2392.494,1249.22,2392.494,1276.74z"/>
	<path style="opacity:0.5;fill:#327F6B;" d="M2341.022,1226.909c4.835,0,9.508,0.659,13.944,1.866v-29.303
		c0-6.14-4.977-11.116-11.115-11.116h-5.658c-6.139,0-11.115,4.977-11.115,11.116v29.303
		C2331.515,1227.568,2336.188,1226.909,2341.022,1226.909z"/>
</g>
<g>
	<path style="opacity:0.5;fill:#96D9C9;" d="M2838.396,1589.553c0,27.521-23.045,49.831-51.472,49.831s-51.472-22.311-51.472-49.831
		c0-27.521,23.045-49.832,51.472-49.832S2838.396,1562.031,2838.396,1589.553z"/>
	<path style="opacity:0.5;fill:#327F6B;" d="M2786.925,1539.721c4.835,0,9.508,0.659,13.944,1.866v-29.303
		c0-6.14-4.977-11.116-11.115-11.116h-5.658c-6.139,0-11.115,4.977-11.115,11.116v29.303
		C2777.417,1540.38,2782.09,1539.721,2786.925,1539.721z"/>
</g>
<g>
	<path style="opacity:0.5;fill:#96D9C9;" d="M2957.848,1589.553c0,27.521-23.045,49.831-51.472,49.831s-51.472-22.311-51.472-49.831
		c0-27.521,23.045-49.832,51.472-49.832S2957.848,1562.031,2957.848,1589.553z"/>
	<path style="opacity:0.5;fill:#327F6B;" d="M2906.376,1539.721c4.835,0,9.508,0.659,13.944,1.866v-29.303
		c0-6.14-4.977-11.116-11.115-11.116h-5.658c-6.139,0-11.115,4.977-11.115,11.116v29.303
		C2896.868,1540.38,2901.541,1539.721,2906.376,1539.721z"/>
</g>
<g>
	<g>
		<path style="fill:#EAFCFC;" d="M1970.802,1021.69h-710.85V787.594h710.85V1021.69z M1270.374,1011.269h690.006V798.016h-690.006
			V1011.269z"/>
	</g>
	<path style="opacity:0.4;fill:#EAFCFC;" d="M1265.163,1016.479l246.49-223.674c0,0,169.068,0,166.752,0
		c-2.315,0-247.813,223.674-247.813,223.674H1265.163z"/>
	<path style="opacity:0.4;fill:#EAFCFC;" d="M1552.324,1016.479l246.49-223.674c0,0,98.454,0,96.138,0
		s-236.232,223.674-236.232,223.674H1552.324z"/>
</g>
<g style="opacity:0.5;">
	<rect x="1297.058" y="1242.439" style="fill:#96D9C9;" width="165.355" height="84.019"/>
	<path style="fill:#50BFA5;" d="M1433.194,1242.439c-23.936,20.627-66.322,57.159-97.467,84.019h126.685v-84.019H1433.194z"/>
	<rect x="1307.291" y="1253.211" style="fill:#FFFFFF;" width="82.941" height="4.848"/>
	<rect x="1307.291" y="1267.483" style="fill:#FFFFFF;" width="60.187" height="4.848"/>
</g>
<g style="opacity:0.5;">
	<rect x="1297.058" y="1159.724" style="fill:#96D9C9;" width="165.355" height="84.019"/>
	<path style="fill:#50BFA5;" d="M1433.194,1159.724c-23.936,20.627-66.322,57.159-97.467,84.019h126.685v-84.019H1433.194z"/>
	<rect x="1307.291" y="1170.495" style="fill:#FFFFFF;" width="82.941" height="4.847"/>
	<rect x="1307.291" y="1184.768" style="fill:#FFFFFF;" width="60.187" height="4.848"/>
</g>
<g style="opacity:0.5;">
	<rect x="1493.339" y="1242.439" style="fill:#96D9C9;" width="165.354" height="84.019"/>
	<path style="fill:#50BFA5;" d="M1629.476,1242.439c-23.935,20.627-66.322,57.159-97.467,84.019h126.685v-84.019H1629.476z"/>
	<rect x="1503.572" y="1253.211" style="fill:#FFFFFF;" width="82.942" height="4.848"/>
	<rect x="1503.572" y="1267.483" style="fill:#FFFFFF;" width="60.187" height="4.848"/>
</g>
<g style="opacity:0.5;">
	<rect x="1493.339" y="1159.724" style="fill:#96D9C9;" width="165.354" height="84.019"/>
	<path style="fill:#50BFA5;" d="M1629.476,1159.724c-23.935,20.627-66.322,57.159-97.467,84.019h126.685v-84.019H1629.476z"/>
	<rect x="1503.572" y="1170.495" style="fill:#FFFFFF;" width="82.942" height="4.847"/>
	<rect x="1503.572" y="1184.768" style="fill:#FFFFFF;" width="60.187" height="4.848"/>
</g>
<g style="opacity:0.5;">
	<rect x="2551.291" y="612.06" style="fill:#96D9C9;" width="165.354" height="84.019"/>
	<path style="fill:#50BFA5;" d="M2687.428,612.06c-23.936,20.627-66.322,57.159-97.467,84.019h126.684V612.06H2687.428z"/>
	<rect x="2561.524" y="622.831" style="fill:#FFFFFF;" width="82.941" height="4.848"/>
	<rect x="2561.524" y="637.104" style="fill:#FFFFFF;" width="60.187" height="4.848"/>
</g>
<g style="opacity:0.5;">
	<rect x="2551.291" y="529.344" style="fill:#96D9C9;" width="165.354" height="84.019"/>
	<path style="fill:#50BFA5;" d="M2687.428,529.344c-23.936,20.627-66.322,57.159-97.467,84.018h126.684v-84.018H2687.428z"/>
	<rect x="2561.524" y="540.115" style="fill:#FFFFFF;" width="82.941" height="4.847"/>
	<rect x="2561.524" y="554.388" style="fill:#FFFFFF;" width="60.187" height="4.847"/>
</g>
<g style="opacity:0.5;">
	<rect x="2614.73" y="1242.439" style="fill:#96D9C9;" width="165.354" height="84.019"/>
	<path style="fill:#50BFA5;" d="M2750.866,1242.439c-23.935,20.627-66.322,57.159-97.467,84.019h126.685v-84.019H2750.866z"/>
	<rect x="2624.963" y="1253.211" style="fill:#FFFFFF;" width="82.941" height="4.848"/>
	<rect x="2624.963" y="1267.483" style="fill:#FFFFFF;" width="60.187" height="4.848"/>
</g>
<g style="opacity:0.5;">
	<rect x="2614.73" y="1159.724" style="fill:#96D9C9;" width="165.354" height="84.019"/>
	<path style="fill:#50BFA5;" d="M2750.866,1159.724c-23.935,20.627-66.322,57.159-97.467,84.019h126.685v-84.019H2750.866z"/>
	<rect x="2624.963" y="1170.495" style="fill:#FFFFFF;" width="82.941" height="4.847"/>
	<rect x="2624.963" y="1184.768" style="fill:#FFFFFF;" width="60.187" height="4.848"/>
</g>
<g style="opacity:0.5;">
	<rect x="1678.43" y="1195.591" style="fill:#96D9C9;" width="48.612" height="130.867"/>
	<rect x="1682.812" y="1209.486" style="fill:#EAFCFC;" width="39.849" height="3.475"/>
	<rect x="1682.812" y="1222.225" style="fill:#EAFCFC;" width="39.849" height="3.474"/>
	<g>
		<polygon style="fill:#50BFA5;" points="1678.43,1323.527 1678.43,1326.458 1727.042,1326.458 1727.042,1286.008 		"/>
		<path style="fill:#50BFA5;" d="M1727.042,1260.465v-22.396l-48.612,45.761v19.478
			C1688.766,1294.287,1709.725,1275.78,1727.042,1260.465z"/>
	</g>
</g>
<g style="opacity:0.5;">
	<rect x="1746.172" y="1195.591" style="fill:#96D9C9;" width="48.613" height="130.867"/>
	<rect x="1750.555" y="1209.486" style="fill:#EAFCFC;" width="39.849" height="3.475"/>
	<rect x="1750.555" y="1222.225" style="fill:#EAFCFC;" width="39.849" height="3.474"/>
	<g>
		<polygon style="fill:#50BFA5;" points="1746.172,1323.527 1746.172,1326.458 1794.785,1326.458 1794.785,1286.008 		"/>
		<path style="fill:#50BFA5;" d="M1794.785,1260.465v-22.396l-48.613,45.761v19.478
			C1756.509,1294.287,1777.468,1275.78,1794.785,1260.465z"/>
	</g>
</g>
<g style="opacity:0.5;">
	<rect x="1813.916" y="1195.591" style="fill:#96D9C9;" width="48.612" height="130.867"/>
	<rect x="1818.298" y="1209.486" style="fill:#EAFCFC;" width="39.849" height="3.475"/>
	<rect x="1818.298" y="1222.225" style="fill:#EAFCFC;" width="39.849" height="3.474"/>
	<g>
		<polygon style="fill:#50BFA5;" points="1813.916,1323.527 1813.916,1326.458 1862.528,1326.458 1862.528,1286.008 		"/>
		<path style="fill:#50BFA5;" d="M1862.528,1260.465v-22.396l-48.612,45.761v19.478
			C1824.252,1294.287,1845.211,1275.78,1862.528,1260.465z"/>
	</g>
</g>
<g style="opacity:0.5;">
	<rect x="1881.659" y="1195.591" style="fill:#96D9C9;" width="48.612" height="130.867"/>
	<rect x="1886.041" y="1209.486" style="fill:#EAFCFC;" width="39.848" height="3.475"/>
	<rect x="1886.041" y="1222.225" style="fill:#EAFCFC;" width="39.848" height="3.474"/>
	<g>
		<polygon style="fill:#50BFA5;" points="1881.659,1323.527 1881.659,1326.458 1930.271,1326.458 1930.271,1286.008 		"/>
		<path style="fill:#50BFA5;" d="M1930.271,1260.465v-22.396l-48.612,45.761v19.478
			C1891.995,1294.287,1912.954,1275.78,1930.271,1260.465z"/>
	</g>
</g>
<g style="opacity:0.5;">
	<rect x="2811.415" y="1195.591" style="fill:#96D9C9;" width="48.612" height="130.867"/>
	<rect x="2815.797" y="1209.486" style="fill:#EAFCFC;" width="39.849" height="3.475"/>
	<rect x="2815.797" y="1222.225" style="fill:#EAFCFC;" width="39.849" height="3.474"/>
	<g>
		<polygon style="fill:#50BFA5;" points="2811.415,1323.527 2811.415,1326.458 2860.027,1326.458 2860.027,1286.008 		"/>
		<path style="fill:#50BFA5;" d="M2860.027,1260.465v-22.396l-48.612,45.761v19.478
			C2821.752,1294.287,2842.711,1275.78,2860.027,1260.465z"/>
	</g>
</g>
<g style="opacity:0.5;">
	<rect x="2879.158" y="1195.591" style="fill:#96D9C9;" width="48.612" height="130.867"/>
	<rect x="2883.54" y="1209.486" style="fill:#EAFCFC;" width="39.849" height="3.475"/>
	<rect x="2883.54" y="1222.225" style="fill:#EAFCFC;" width="39.849" height="3.474"/>
	<g>
		<polygon style="fill:#50BFA5;" points="2879.158,1323.527 2879.158,1326.458 2927.771,1326.458 2927.771,1286.008 		"/>
		<path style="fill:#50BFA5;" d="M2927.771,1260.465v-22.396l-48.612,45.761v19.478
			C2889.494,1294.287,2910.453,1275.78,2927.771,1260.465z"/>
	</g>
</g>
<g style="opacity:0.5;">
	<rect x="2284.329" y="530.744" style="fill:#96D9C9;" width="61.563" height="165.732"/>
	<rect x="2289.879" y="548.342" style="fill:#EAFCFC;" width="50.464" height="4.399"/>
	<rect x="2289.879" y="564.474" style="fill:#EAFCFC;" width="50.464" height="4.4"/>
	<g>
		<polygon style="fill:#50BFA5;" points="2284.329,692.765 2284.329,696.476 2345.893,696.476 2345.893,645.25 		"/>
		<path style="fill:#50BFA5;" d="M2345.893,612.901V584.54l-61.563,57.952v24.666
			C2297.42,655.734,2323.961,632.297,2345.893,612.901z"/>
	</g>
</g>
<g style="opacity:0.5;">
	<rect x="2370.119" y="530.744" style="fill:#96D9C9;" width="61.563" height="165.732"/>
	<rect x="2375.669" y="548.342" style="fill:#EAFCFC;" width="50.465" height="4.399"/>
	<rect x="2375.669" y="564.474" style="fill:#EAFCFC;" width="50.465" height="4.4"/>
	<g>
		<polygon style="fill:#50BFA5;" points="2370.119,692.765 2370.119,696.476 2431.683,696.476 2431.683,645.25 		"/>
		<path style="fill:#50BFA5;" d="M2431.683,612.901V584.54l-61.563,57.952v24.666
			C2383.21,655.734,2409.752,632.297,2431.683,612.901z"/>
	</g>
</g>
<g style="opacity:0.5;">
	<rect x="2455.91" y="530.744" style="fill:#96D9C9;" width="61.563" height="165.732"/>
	<rect x="2461.459" y="548.342" style="fill:#EAFCFC;" width="50.465" height="4.399"/>
	<rect x="2461.459" y="564.474" style="fill:#EAFCFC;" width="50.465" height="4.4"/>
	<g>
		<polygon style="fill:#50BFA5;" points="2455.91,692.765 2455.91,696.476 2517.474,696.476 2517.474,645.25 		"/>
		<path style="fill:#50BFA5;" d="M2517.474,612.901V584.54l-61.563,57.952v24.666C2469,655.734,2495.542,632.297,2517.474,612.901z"
			/>
	</g>
</g>
<g>
	<g>
		<path style="fill:#EAFCFC;" d="M1970.802,1336.88h-710.85v-234.096h710.85V1336.88z M1270.374,1326.458h690.006v-213.252h-690.006
			V1326.458z"/>
	</g>
	<path style="opacity:0.4;fill:#EAFCFC;" d="M1265.163,1331.669l246.49-223.674c0,0,169.068,0,166.752,0
		c-2.315,0-247.813,223.674-247.813,223.674H1265.163z"/>
	<path style="opacity:0.4;fill:#EAFCFC;" d="M1552.324,1331.669l246.49-223.674c0,0,98.454,0,96.138,0
		s-236.232,223.674-236.232,223.674H1552.324z"/>
</g>
<g style="opacity:0.5;">
	<rect x="1669.422" y="1505.476" style="fill:#96D9C9;" width="273.289" height="136.117"/>
	<rect x="1698.372" y="1526.95" style="fill:#FFFFFF;" width="162.12" height="23.067"/>
	<rect x="1698.372" y="1588.672" style="fill:#FFFFFF;" width="162.12" height="6.273"/>
	<g>
		<rect x="1698.372" y="1603.707" style="fill:#FFFFFF;" width="122.729" height="6.273"/>
	</g>
	<g>
		<rect x="1698.372" y="1618.74" style="fill:#FFFFFF;" width="153.271" height="6.273"/>
	</g>
</g>
<g style="opacity:0.5;">
	<rect x="2424.88" y="874.358" style="fill:#96D9C9;" width="166.737" height="136.117"/>
	<rect x="2442.543" y="895.832" style="fill:#FFFFFF;" width="98.912" height="23.068"/>
	<rect x="2442.543" y="957.555" style="fill:#FFFFFF;" width="98.912" height="6.272"/>
	<g>
		<rect x="2442.543" y="972.589" style="fill:#FFFFFF;" width="74.879" height="6.272"/>
	</g>
	<g>
		<rect x="2442.543" y="987.623" style="fill:#FFFFFF;" width="93.513" height="6.273"/>
	</g>
</g>
<g style="opacity:0.5;">
	<rect x="2633.276" y="874.358" style="fill:#96D9C9;" width="166.737" height="136.117"/>
	<rect x="2650.939" y="895.832" style="fill:#FFFFFF;" width="98.912" height="23.068"/>
	<rect x="2650.939" y="957.555" style="fill:#FFFFFF;" width="98.912" height="6.272"/>
	<g>
		<rect x="2650.939" y="972.589" style="fill:#FFFFFF;" width="74.879" height="6.272"/>
	</g>
	<g>
		<rect x="2650.939" y="987.623" style="fill:#FFFFFF;" width="93.513" height="6.273"/>
	</g>
</g>
<g style="opacity:0.5;">
	<rect x="2744.867" y="603.028" style="fill:#96D9C9;" width="187.059" height="93.168"/>
	<rect x="2764.684" y="617.727" style="fill:#FFFFFF;" width="110.967" height="15.79"/>
	<rect x="2764.684" y="659.974" style="fill:#FFFFFF;" width="110.967" height="4.293"/>
	<g>
		<rect x="2764.684" y="670.264" style="fill:#FFFFFF;" width="84.004" height="4.293"/>
	</g>
	<g>
		<rect x="2764.684" y="680.555" style="fill:#FFFFFF;" width="104.909" height="4.293"/>
	</g>
</g>
<g style="opacity:0.5;">
	<rect x="2744.867" y="511.163" style="fill:#96D9C9;" width="187.059" height="93.169"/>
	<rect x="2764.684" y="525.861" style="fill:#FFFFFF;" width="110.967" height="15.79"/>
	<rect x="2764.684" y="568.108" style="fill:#FFFFFF;" width="110.967" height="4.293"/>
	<g>
		<rect x="2764.684" y="578.399" style="fill:#FFFFFF;" width="84.004" height="4.293"/>
	</g>
	<g>
		<rect x="2764.684" y="588.69" style="fill:#FFFFFF;" width="104.909" height="4.293"/>
	</g>
</g>
<g style="opacity:0.5;">
	<rect x="2280.16" y="1547.683" style="fill:#96D9C9;" width="187.059" height="93.168"/>
	<rect x="2299.976" y="1562.381" style="fill:#FFFFFF;" width="110.967" height="15.79"/>
	<rect x="2299.976" y="1604.629" style="fill:#FFFFFF;" width="110.967" height="4.293"/>
	<g>
		<rect x="2299.976" y="1614.919" style="fill:#FFFFFF;" width="84.005" height="4.294"/>
	</g>
	<g>
		<rect x="2299.976" y="1625.209" style="fill:#FFFFFF;" width="104.909" height="4.294"/>
	</g>
</g>
<g style="opacity:0.5;">
	<rect x="2280.16" y="1455.817" style="fill:#96D9C9;" width="187.059" height="93.168"/>
	<rect x="2299.976" y="1470.516" style="fill:#FFFFFF;" width="110.967" height="15.79"/>
	<rect x="2299.976" y="1512.764" style="fill:#FFFFFF;" width="110.967" height="4.293"/>
	<g>
		<rect x="2299.976" y="1523.054" style="fill:#FFFFFF;" width="84.005" height="4.293"/>
	</g>
	<g>
		<rect x="2299.976" y="1533.344" style="fill:#FFFFFF;" width="104.909" height="4.294"/>
	</g>
</g>
<g>
	<g>
		<path style="fill:#EAFCFC;" d="M1970.802,1652.07h-710.85v-234.097h710.85V1652.07z M1270.374,1641.648h690.006v-213.253h-690.006
			V1641.648z"/>
	</g>
	<path style="opacity:0.4;fill:#EAFCFC;" d="M1265.163,1646.859l246.49-223.675c0,0,169.068,0,166.752,0
		c-2.315,0-247.813,223.675-247.813,223.675H1265.163z"/>
	<path style="opacity:0.4;fill:#EAFCFC;" d="M1552.324,1646.859l246.49-223.675c0,0,98.454,0,96.138,0
		s-236.232,223.675-236.232,223.675H1552.324z"/>
</g>
<polygon style="fill:#96D9C9;" points="518.087,1915.96 1268.473,1915.96 1321.371,1388.099 518.087,1388.099 "/>
<polygon style="fill:#50BFA5;" points="143.553,1915.96 518.086,1915.96 518.086,1388.099 118.856,1388.099 "/>
<rect x="74.888" y="1369" transform="matrix(-1 -1.224647e-16 1.224647e-16 -1 1412.2617 2757.0986)" style="fill:#327F6B;" width="1262.486" height="19.099"/>
<g>
	<circle style="fill:#FFFFFF;" cx="961.151" cy="1720.3" r="101.55"/>
	
		<ellipse transform="matrix(0.2873 -0.9579 0.9579 0.2873 -962.7401 2146.7778)" style="fill:#50BFA5;" cx="961.151" cy="1720.3" rx="92.062" ry="92.062"/>
	<polygon style="fill:#FFFFFF;" points="971.047,1658.867 952.522,1658.676 951.983,1711.058 899.599,1711.181 899.643,1729.706 
		951.792,1729.584 951.255,1781.731 969.78,1781.923 970.32,1729.541 1022.705,1729.418 1022.661,1710.893 970.511,1711.015 	"/>
</g>
<g>
	<path style="fill:#50BFA5;" d="M590.589,1467.63h32.419c7.111,0,13.068,0.662,17.869,1.985c4.801,1.324,8.603,4.189,11.409,8.594
		c2.805,4.405,4.208,9.334,4.208,14.787c0,8.771-2.786,15.429-8.357,19.974c-5.571,4.543-13.631,6.815-24.181,6.815h-21.87v34.73
		h-11.498V1467.63z M602.087,1509.473h21.988c7.388,0,12.653-1.383,15.795-4.149c3.141-2.765,4.711-6.757,4.711-11.972
		c0-3.477-0.87-6.558-2.608-9.246c-1.739-2.686-3.941-4.386-6.608-5.097c-2.667-0.711-6.51-1.067-11.528-1.067h-21.751V1509.473z"/>
	<path style="fill:#50BFA5;" d="M739.765,1554.516h-11.557v-40.895h-45.162v40.895h-11.498v-86.886h11.498v35.679h45.162v-35.679
		h11.557V1554.516z"/>
	<path style="fill:#50BFA5;" d="M830.561,1554.516h-12.979l-10.076-26.434h-36.39l-9.601,26.434h-12.149l33.367-86.886h12.387
		L830.561,1554.516z M804.129,1518.955l-15.291-40.301l-14.58,40.301H804.129z"/>
	<path style="fill:#50BFA5;" d="M912.587,1554.516h-12.446l-8.179-23.174c-1.462-4.109-3.892-7.468-7.289-10.075
		c-3.399-2.607-7.311-3.912-11.735-3.912H851.66v37.161h-11.498v-86.886h38.464c6.717,0,12.208,0.651,16.476,1.956
		c4.267,1.304,7.743,4.051,10.431,8.237c2.687,4.189,4.03,8.91,4.03,14.165c0,6.006-1.739,11.023-5.215,15.054
		c-3.477,4.03-8.238,6.659-14.283,7.883v0.236c6.045,1.937,10.648,7.172,13.809,15.706L912.587,1554.516z M851.66,1507.042h25.663
		c7.151,0,12.337-1.126,15.558-3.378c3.22-2.253,4.83-6.144,4.83-11.676c0-9.878-6.204-14.816-18.61-14.816h-27.44V1507.042z"/>
	<path style="fill:#50BFA5;" d="M1009.489,1554.516h-10.906v-73.906l-24.773,73.906h-10.313l-24.773-73.906v73.906h-10.905v-86.886
		h17.247l23.529,72.424l23.648-72.424h17.247V1554.516z"/>
	<path style="fill:#50BFA5;" d="M1100.286,1554.516h-12.979l-10.076-26.434h-36.39l-9.601,26.434h-12.15l33.367-86.886h12.387
		L1100.286,1554.516z M1073.853,1518.955l-15.291-40.301l-14.58,40.301H1073.853z"/>
	<path style="fill:#50BFA5;" d="M1146.277,1555.997c-12.289,0-22.098-4.039-29.426-12.12c-7.33-8.08-10.995-19.015-10.995-32.805
		c0-13.789,3.665-24.724,10.995-32.804c7.329-8.08,17.137-12.12,29.426-12.12c9.443,0,17.484,2.548,24.122,7.646
		c6.638,5.097,10.372,11.813,11.201,20.15h-11.853c-0.475-5.492-2.855-9.858-7.142-13.099c-4.288-3.238-9.69-4.859-16.21-4.859
		c-8.811,0-15.785,3.033-20.921,9.098c-5.136,6.065-7.705,14.729-7.705,25.988c0,11.222,2.548,19.875,7.646,25.959
		c5.097,6.085,12.011,9.127,20.744,9.127c6.795,0,12.288-1.659,16.476-4.979c4.188-3.319,6.558-8.06,7.112-14.224h11.853
		c-0.83,9.245-4.465,16.397-10.905,21.455C1164.254,1553.468,1156.115,1555.997,1146.277,1555.997z"/>
	<path style="fill:#50BFA5;" d="M1268.189,1467.63l-34.138,50.08v36.806h-11.498v-36.806l-34.138-50.08h13.987l25.959,40.005
		l25.841-40.005H1268.189z"/>
</g>
<g>
	<path style="fill:#FFFFFF;" d="M584.087,1467.63h32.419c7.112,0,13.068,0.662,17.869,1.985c4.801,1.324,8.603,4.189,11.409,8.594
		c2.805,4.405,4.208,9.334,4.208,14.787c0,8.771-2.786,15.429-8.357,19.974c-5.571,4.543-13.631,6.815-24.181,6.815h-21.869v34.73
		h-11.498V1467.63z M595.585,1509.473h21.988c7.388,0,12.653-1.383,15.794-4.149c3.141-2.765,4.712-6.757,4.712-11.972
		c0-3.477-0.87-6.558-2.608-9.246c-1.739-2.686-3.941-4.386-6.608-5.097c-2.667-0.711-6.51-1.067-11.528-1.067h-21.751V1509.473z"/>
	<path style="fill:#FFFFFF;" d="M733.263,1554.516h-11.557v-40.895h-45.162v40.895h-11.497v-86.886h11.497v35.679h45.162v-35.679
		h11.557V1554.516z"/>
	<path style="fill:#FFFFFF;" d="M824.06,1554.516h-12.979l-10.076-26.434h-36.39l-9.601,26.434h-12.149l33.367-86.886h12.387
		L824.06,1554.516z M797.627,1518.955l-15.291-40.301l-14.58,40.301H797.627z"/>
	<path style="fill:#FFFFFF;" d="M906.085,1554.516h-12.446l-8.179-23.174c-1.462-4.109-3.892-7.468-7.29-10.075
		c-3.399-2.607-7.311-3.912-11.735-3.912h-21.277v37.161h-11.498v-86.886h38.464c6.716,0,12.208,0.651,16.476,1.956
		c4.267,1.304,7.744,4.051,10.431,8.237c2.687,4.189,4.03,8.91,4.03,14.165c0,6.006-1.739,11.023-5.215,15.054
		c-3.477,4.03-8.238,6.659-14.283,7.883v0.236c6.045,1.937,10.647,7.172,13.809,15.706L906.085,1554.516z M845.158,1507.042h25.663
		c7.151,0,12.336-1.126,15.558-3.378c3.22-2.253,4.83-6.144,4.83-11.676c0-9.878-6.203-14.816-18.61-14.816h-27.44V1507.042z"/>
	<path style="fill:#FFFFFF;" d="M1002.986,1554.516h-10.905v-73.906l-24.773,73.906h-10.313l-24.773-73.906v73.906h-10.905v-86.886
		h17.247l23.529,72.424l23.647-72.424h17.247V1554.516z"/>
	<path style="fill:#FFFFFF;" d="M1093.784,1554.516h-12.979l-10.076-26.434h-36.39l-9.601,26.434h-12.15l33.367-86.886h12.387
		L1093.784,1554.516z M1067.351,1518.955l-15.291-40.301l-14.579,40.301H1067.351z"/>
	<path style="fill:#FFFFFF;" d="M1139.775,1555.997c-12.289,0-22.097-4.039-29.426-12.12c-7.33-8.08-10.995-19.015-10.995-32.805
		c0-13.789,3.665-24.724,10.995-32.804c7.329-8.08,17.137-12.12,29.426-12.12c9.443,0,17.484,2.548,24.122,7.646
		c6.638,5.097,10.372,11.813,11.201,20.15h-11.853c-0.475-5.492-2.855-9.858-7.142-13.099c-4.288-3.238-9.691-4.859-16.21-4.859
		c-8.811,0-15.785,3.033-20.921,9.098c-5.136,6.065-7.705,14.729-7.705,25.988c0,11.222,2.548,19.875,7.646,25.959
		c5.097,6.085,12.011,9.127,20.744,9.127c6.795,0,12.288-1.659,16.476-4.979c4.188-3.319,6.558-8.06,7.112-14.224h11.853
		c-0.83,9.245-4.465,16.397-10.905,21.455C1157.752,1553.468,1149.613,1555.997,1139.775,1555.997z"/>
	<path style="fill:#FFFFFF;" d="M1261.688,1467.63l-34.138,50.08v36.806h-11.498v-36.806l-34.138-50.08h13.987l25.959,40.005
		l25.841-40.005H1261.688z"/>
</g>
<g>
	<path style="fill:#215E4B;" d="M318.278,1811.01h3.748c1.234-12.615,3.662-26.553,7.982-41.133
		c16.338-55.142,9.19-62.275,36.761-96.746c27.57-34.47,29.612-105.948,29.612-105.948s13.275-81.18,0-116.919
		c-13.275-35.74-14.296-71.479-46.461-109.262c0,0-6.127,50.546-13.786,73.521c-7.658,22.976-14.931,44.93-9.252,100.071
		c5.678,55.141,9.206,59.735,10.505,74.031s-0.743,74.556,2.321,84.505c3.064,9.95-17.87,78.876-19.401,108.488
		C319.847,1790.518,319.019,1800.662,318.278,1811.01z"/>
	<path style="fill:#3C8F7C;" d="M330.021,1811.01c5.319-12.271,14.683-24.466,31.078-31.785
		c42.887-19.146,71.819-18.721,91.731-64.672c19.912-45.95,19.912-108.75,26.805-121.77c0,0-18.38-3.063-36.761,29.868
		c-18.38,32.932-30.848,57.438-41.463,76.585c-10.615,19.146-25.932,13.785-38.951,28.336
		c-10.911,12.195-20.986,40.565-24.814,54.961c-1.244,4.677-3.051,9.182-5.437,13.391c-2.169,3.83-4.723,8.488-6.254,11.808
		c-0.34,0.738-0.679,1.864-1.011,3.278H330.021z"/>
	<path style="fill:#215E4B;" d="M209.004,1593.221c-3.063,39.314,21.955,36.251,22.976,61.269s33.697,67.395,48.835,97.518
		c7.874,15.668,10.781,39.62,11.759,59.003h12.163c-4.705-49.058-24.609-83.204-36.507-110.57
		c-15.317-35.229-17.615-51.312-4.595-78.882c13.019-27.57-6.127-98.794,12.408-130.547c18.535-31.753,9.036-81.593,4.773-100.739
		c-4.263-19.146,0.434-32.165,4.263-52.351c3.829-20.185-4.263-49.507-4.263-49.507c-0.689,25.018-19.733,59.226-33.518,81.18
		c-13.785,21.954-39.824,81.69-36.761,108.751c3.063,27.06,1.532,29.102,1.532,29.102
		C202.367,1543.696,212.067,1553.908,209.004,1593.221z"/>
	<path style="fill:#3C8F7C;" d="M281.981,1779.064c1.564,4.692,6.578,16.677,11.168,31.945h7.459
		c-3.393-19.438-9.25-41.992-19.137-54.921c-19.912-26.039-59.736-37.271-64.331-56.162c-4.595-18.891,0.51-75.563-28.592-107.219
		c0,0,4.084,35.242,0,44.681c-4.085,9.439-38.803,53.348-18.38,90.108c20.423,36.761,66.374,32.166,80.669,40.335
		C265.133,1776.001,279.428,1771.405,281.981,1779.064z"/>
	<path style="fill:#3C8F7C;" d="M263.601,1609.525c-0.511,37.781,29.102,52.077,28.591,73.011
		c-0.511,20.933,6.127,43.397,11.743,60.246c3.555,10.666,1.587,40.359,0.958,68.228h8.217c2.069-20.479,4.337-50.025,3.589-63.121
		c-1.021-17.87,7.147-32.166,8.169-63.311c1.021-31.145,7.659-59.226-6.127-98.539c-13.785-39.313-11.232-86.285-68.926-129.684
		c0,0-10.211,45.951-2.553,70.969C254.921,1552.342,264.111,1571.744,263.601,1609.525z"/>
	<path style="fill:#327F6B;" d="M263.601,1609.525c-0.51,37.781,29.103,52.077,28.592,73.011
		c-0.511,20.933,6.127,43.397,11.743,60.246c3.555,10.666,1.587,40.359,0.958,68.228h3.41c0.461-5.821,0.908-9.479,0.908-9.479
		l1.702-70.457c0,0-3.404-55.142-9.53-100.071c-6.127-44.93-51.567-174.647-51.567-174.647s-10.211,45.951-2.553,70.969
		C254.921,1552.342,264.111,1571.744,263.601,1609.525z"/>
	<path style="fill:#EAFCFC;" d="M322.049,1778.769h-5.511H242.97c-5.407,0-9.396,5.059-8.146,10.33l28.827,121.56
		c0.896,3.781,4.267,6.45,8.146,6.45h44.741h5.511h44.741c3.878,0,7.249-2.669,8.146-6.45l28.827-121.56
		c1.25-5.271-2.739-10.33-8.146-10.33H322.049z"/>
</g>
<g>
	<g>
		<path style="fill:#EAFCFC;" d="M2970.154,1021.69h-710.85V787.594h710.85V1021.69z M2269.727,1011.269h690.006V798.016h-690.006
			V1011.269z"/>
	</g>
	<path style="opacity:0.4;fill:#EAFCFC;" d="M2264.516,1016.479l246.49-223.674c0,0,169.068,0,166.753,0
		c-2.316,0-247.813,223.674-247.813,223.674H2264.516z"/>
	<path style="opacity:0.4;fill:#EAFCFC;" d="M2551.678,1016.479l246.49-223.674c0,0,98.453,0,96.137,0
		c-2.315,0-236.232,223.674-236.232,223.674H2551.678z"/>
</g>
<g>
	<g>
		<path style="fill:#EAFCFC;" d="M2970.154,1336.88h-710.85v-234.096h710.85V1336.88z M2269.727,1326.458h690.006v-213.252h-690.006
			V1326.458z"/>
	</g>
	<path style="opacity:0.4;fill:#EAFCFC;" d="M2264.516,1331.669l246.49-223.674c0,0,169.068,0,166.753,0
		c-2.316,0-247.813,223.674-247.813,223.674H2264.516z"/>
	<path style="opacity:0.4;fill:#EAFCFC;" d="M2551.678,1331.669l246.49-223.674c0,0,98.453,0,96.137,0
		c-2.315,0-236.232,223.674-236.232,223.674H2551.678z"/>
</g>
<g>
	<g>
		<path style="fill:#EAFCFC;" d="M2970.154,1650.393h-710.85v-234.097h710.85V1650.393z M2269.727,1639.971h690.006v-213.253
			h-690.006V1639.971z"/>
	</g>
	<path style="opacity:0.4;fill:#EAFCFC;" d="M2264.516,1645.182l246.49-223.674c0,0,169.068,0,166.753,0
		c-2.316,0-247.813,223.674-247.813,223.674H2264.516z"/>
	<path style="opacity:0.4;fill:#EAFCFC;" d="M2551.678,1645.182l246.49-223.674c0,0,98.453,0,96.137,0
		c-2.315,0-236.232,223.674-236.232,223.674H2551.678z"/>
</g>
<g>
	<g>
		<path style="fill:#EAFCFC;" d="M2970.154,706.5h-710.85V472.404h710.85V706.5z M2269.727,696.078h690.006V482.826h-690.006
			V696.078z"/>
	</g>
	<path style="opacity:0.4;fill:#EAFCFC;" d="M2264.516,701.29l246.49-223.674c0,0,169.068,0,166.753,0
		c-2.316,0-247.813,223.674-247.813,223.674H2264.516z"/>
	<path style="opacity:0.4;fill:#EAFCFC;" d="M2551.678,701.29l246.49-223.674c0,0,98.453,0,96.137,0
		c-2.315,0-236.232,223.674-236.232,223.674H2551.678z"/>
</g>
<g>
	<path style="fill:#184655;" d="M1557.891,951.827c1.186-28.704-3.023-57.049-15.811-83.773
		c-11.003-22.992-38.226-36.039-63.051-36.071c-78.831-0.103-88.855,104.499-139.036,144.848
		c-15.333,12.328-32.471,22.37-46.98,35.666c-53.574,49.094-29.442,139.974,19.751,183.015
		c34.138,29.867,87.79,46.837,129.865,23.488c21.962-12.188,38.635-32.447,50.514-54.646c16.858-31.504,27.725-67.854,39.715-101.43
		C1545.621,1027.186,1556.314,989.981,1557.891,951.827z"/>
	<path style="fill:#F7A491;" d="M1276.193,840.129c3.638-2.639,12.849,16.139,17.274,15.958c4.426-0.182-3.056-26.28,0.276-28.294
		c6.137-3.711,9.952,28.08,12.884,26.551c2.932-1.529,0.613-34.506,6.954-32.769c6.339,1.738-1.164,34.446,2.712,34.206
		c3.876-0.241,4.241-31.045,12.333-32.923c4.325-1.004-7.3,52.568-3.393,57.205c3.906,4.637,20.536-12.409,24.77-9.055
		c4.232,3.354-32.567,28.384-33.141,31.748c-0.571,3.353-8.187,75.281-7.192,99.059c8.203,0.462,54.603,9.647,62.308,9.914
		c-5.102,15.039,7.443,30.58,3.24,45.784c-26.003-2.299-103.357-8.198-108.211-13.779c-14.779-16.992,12.303-122.002,18.541-140.414
		c6.243-18.429,0.134-26.07,0.464-37.364S1272.555,842.767,1276.193,840.129z"/>
	<g>
		<path style="fill:#F48C7F;" d="M1396.744,1914.152c6.555-4.83,11.844-8.023,32.781-18.174c1.365-0.662,6.336-3.83,8.129-4.928
			c4.546-2.782,9.111-7.161,13.042-11.547c3.752-4.187,5.541-17.609,6.385-28.308c-2.155-23.892-36.776-407.088-44.079-448.57
			c-7.538-42.82,3.943-108.136,3.943-108.136l26.729-10.08l50.738,175.858l-4.001,133.863c0,0,11.932,38.585,13.439,61.643
			c1.508,23.057-17.247,210.219-17.247,210.219h-0.001c-0.001,6.692,0.262,12.746,1.005,16.526c1.377,7.001,9.046,21.412,5.528,28
			c-3.518,6.588-7.538,8.234-7.538,8.234l-91.171,1.473C1389.458,1920.307,1392.74,1917.104,1396.744,1914.152z"/>
		<path style="fill:#F79C8D;" d="M1535.115,1280.753c0,0,31.659,47.761,39.197,87.287s-5.533,161,8.968,212.796
			c7.85,28.04,37.6,71.34,42.123,107.572c4.522,36.232,20.26,140.811,20.26,140.811h-0.002c2.381,10.979,6.11,24.558,10.952,30.87
			c2.964,3.864,8.376,8.751,11.93,15.735c5.53,10.87,2.473,27.054-1.606,35.967c-2.095,4.575,0.146,4.563-4.622,6.036
			c-14.121,4.366-29.143-2.987-35.155-16.541c-3.358-7.572-6.305-17.673-6.897-30.4c-0.628-13.49-2.738-24.208-4.987-32.136l0,0
			l-101.197-248.244l-73.264-214.237l-18.768-110.338L1535.115,1280.753z"/>
		<path style="fill:#86B1F2;" d="M1624.421,1894.156c21.903,4.002,36.477-8.84,44.061-18.453
			c5.566,10.891,8.282,27.142,4.188,36.088c-3.606,7.881-14.146,7.654-22.444,7.963c-8.774,0.327-15.564-4.559-19.917-12.217
			C1628.274,1903.962,1626.178,1899.508,1624.421,1894.156z"/>
		<path style="fill:#86B1F2;" d="M1437.667,1891.043c24.112,6.201,41.935,1.985,51.906-2.044c2.571,7.304,5.98,16.467,4.172,21.75
			c-2.213,6.47-5.365,7.933-8.148,8.005c-22.024,0.58-80.674,1.369-97.467,1.589c-2.345,0.03-3.639-2.716-2.131-4.521
			C1390.162,1910.837,1435.87,1892.144,1437.667,1891.043z"/>
		<path style="fill:#13375B;" d="M1514.585,1585.824c-1.892,0.129-3.798,0.252-5.712,0.367c-0.098,0.006-0.196,0.012-0.294,0.018
			c-1.878,0.113-3.766,0.219-5.658,0.317c-0.115,0.006-0.229,0.013-0.345,0.019c-1.895,0.098-3.796,0.188-5.701,0.27
			c-0.097,0.004-0.194,0.008-0.292,0.012c-1.938,0.082-3.879,0.157-5.82,0.221c-21.61,0.71-48.305,0.435-65.433-2.477
			c-8.731-87.412-11.984-167.188-15.216-184.844c-7.839-42.82,6.83-110.408,6.83-110.408l-1.18-16.048l3.756-10.238l117.58,14.822
			c0,0,32.922,47.761,40.761,87.287c7.838,39.526-5.753,160.999,9.326,212.796
			C1587.188,1577.938,1553.619,1583.167,1514.585,1585.824z"/>
	</g>
	<path style="fill:#EAB054;" d="M1354.458,1005.185c0,0,88.034-9.209,114.013-0.517c25.978,8.69,44.229,45.811,30.36,66.58
		c-13.869,20.768-138.804-6.432-138.804-6.432L1354.458,1005.185z"/>
	<path style="fill:#F7CC7F;" d="M1509.725,996.998c0,0,43.546-2.695,60.774,15.552c17.228,18.247-38.216,162.593-41.348,185.815
		c-3.132,23.225,15.969,84.974,15.969,84.974s-102.295,20.003-131.532,1.202c0,0-5.371-168.612-2.238-185.202
		c3.132-16.589,31.475-82.436,37.74-89.071C1455.354,1003.632,1509.725,996.998,1509.725,996.998z"/>
	<path style="fill:#F7A491;" d="M1495.228,940.454c0,0,0.226,1.247,0.63,3.367c1.942,10.174,9.418,43.923,14.47,53.202
		c6.104,11.212-20.897,46.974-46.885,42.609c-7.736-1.299,6.539-32.857,5.853-36.2c-1.313-6.399-3.094-15.129-4.917-24.081
		c-1.028-5.049-2.069-10.169-3.047-14.981c-2.779-13.675-5.047-24.859-5.047-24.859L1495.228,940.454z"/>
	<path style="fill:#F47458;" d="M1495.858,943.82c-0.405-2.12-0.63-3.367-0.63-3.367l-38.943-0.943c0,0,2.268,11.184,5.047,24.859
		c0.973,4.785,2.007,9.875,3.03,14.897c6.012-0.86,12.294-3.701,18.593-9.059c6.867-5.841,11.368-12.861,14.084-20.356
		C1496.56,947.46,1496.159,945.398,1495.858,943.82z"/>
	<path style="fill:#F7A491;" d="M1469.018,854.435c0,0,18.355-2.061,29.861,12.4c11.505,14.461,23.907,59.18-4.675,83.493
		c-28.582,24.313-56.822-3.208-61.009-32.387C1429.007,888.761,1427.38,853.382,1469.018,854.435z"/>
	<path style="fill:#F7A491;" d="M1424.739,917.51c3.411,6.444,9.138,10.013,12.79,7.971c3.652-2.043,3.848-8.923,0.437-15.368
		c-3.412-6.444-9.138-10.013-12.79-7.97S1421.328,911.065,1424.739,917.51z"/>
	<path style="fill:#184655;" d="M1466.964,849.655c0,0,24.522,42.526,42.065,44.491c17.542,1.965,19.846,24.561,19.846,24.561
		s-6.272-52.068-23.639-62.109C1487.869,846.557,1466.964,849.655,1466.964,849.655z"/>
	<path style="fill:#F7A491;" d="M1504.429,904.831c-1.427,7.552,1.442,14.477,6.409,15.469s10.148-4.327,11.575-11.879
		c1.427-7.552-1.442-14.477-6.409-15.468C1511.038,891.961,1505.855,897.279,1504.429,904.831z"/>
	<path style="fill:#FFFFFF;" d="M1480.329,924.488l-25.056,3.59c0,0,1.94,9.434,13.005,8.173
		C1481.769,934.715,1480.329,924.488,1480.329,924.488z"/>
	<path style="fill:#B75742;" d="M1665.718,1430.587l-3.395-8.356l-5.854,4.229l-3.991,11.526l2.831,2.298
		C1655.309,1440.283,1663.193,1432.632,1665.718,1430.587z"/>
	<g>
		<g>
			<path style="fill:#3C8F7C;" d="M1610.742,1482.992l1.225-32.791c0.912-24.408,14.654-45.484,30.635-46.983
				s33.946,18.496,40.05,44.573l8.199,35.035c0.806,3.442,5.268,3.45,4.409-0.009l-8.718-35.158
				c-7.203-29.051-27.147-51.248-44.458-49.481c-17.312,1.767-32.567,25.164-34.008,52.155l-1.744,32.668
				C1606.161,1486.211,1610.622,1486.219,1610.742,1482.992z"/>
		</g>
		<polygon style="fill:#215E4B;" points="1585.575,1455.301 1591.782,1455.157 1576.245,1670.275 1538.338,1670.547 		"/>
		<polygon style="fill:#3C8F7C;" points="1576.245,1670.275 1801.363,1670.275 1758.885,1455.803 1591.782,1455.157 		"/>
		<polygon style="fill:#215E4B;" points="1693.512,1649.357 1801.363,1670.275 1576.245,1670.275 		"/>
		<g>
			<path style="fill:#3C8F7C;" d="M1628.052,1478.341l1.225-32.791c0.912-24.407,14.654-45.483,30.635-46.983
				c15.98-1.499,33.946,18.496,40.05,44.574l8.199,35.035c0.805,3.441,5.268,3.449,4.409-0.01l-8.718-35.158
				c-7.203-29.051-27.147-51.248-44.459-49.481c-17.311,1.767-32.566,25.164-34.007,52.156l-1.744,32.667
				C1623.471,1481.56,1627.932,1481.567,1628.052,1478.341z"/>
		</g>
	</g>
	<path style="fill:#F7A491;" d="M1637.095,1375.284c0.159-0.681-27.282-117.129-38.37-142.878s-54.194-145.342-54.194-145.342
		l43.735-17.702c0,0,41.972,96.761,58.376,139.071c16.404,42.312,15.458,122.673,16.19,144.686
		c0.011,0.316,2.408,18.62,2.422,18.932h-0.001c0.56,2.431,1.077,4.469,1.319,4.859c0.665,1.076,2.577,8.462,2.663,9.098
		c0.087,0.637,1.724,3.135,2.388,4.211c0.665,1.076,2.181,16.031,2.51,18.449c0.328,2.417-0.744,7.875-0.744,7.875l0.586,10.028
		c0.43,7.363-7.205,5.417-7.205,5.417c0.181,3.474-1.031,5.291-2.984,5.944c-1.953,0.654-4.266,0.094-4.635,0.241
		s-0.513,1.236-0.513,1.236c0.203,2.207-2.288,3.906-3.898,4.223c-1.61,0.315-4.479-0.753-5.289-1.712
		c-0.812-0.958-1.376-0.817-1.376-0.817c-1.626,1.388-7.858,1.327-9.298-0.681c-1.44-2.007-2.749-12.585-3.396-13.533
		s-2.036-2.574-2.243-4.101c-0.208-1.527-5.313-12.366-5.606-14.529c-0.294-2.162,2.862-9.459,3.564-13.831
		c0.702-4.371,4.964-11.171,5.994-13.124c0.403-0.765,0.292-3.263,0.009-6.021H1637.095z"/>
	<path style="fill:#F7CC7F;" d="M1568.617,1163.618c0,0-49.188-73.59-53.609-100.624c-4.421-27.035,19.911-60.486,44.75-57.898
		c24.839,2.589,67.293,125.703,67.293,125.703L1568.617,1163.618z"/>
</g>
<g>
	<path style="fill:#184655;" d="M2569.739,870.495c-7.679,31.554,33.877,54.465,66.78,55.303
		c21.385,0.544,31.215-1.645,34.673-24.102c5.608-36.425-9.452-58.631-30.553-67.822
		C2613.413,822.016,2576.074,844.464,2569.739,870.495z"/>
	<path style="fill:#F7A491;" d="M2610.248,1383.662l25.82,229.988c0,0-12.62,48.636-11.098,62.453
		c1.521,13.817,28.064,195.074,28.064,195.074l-1.119,10.169l-0.03,30.023h98.526c0,0-20.912-9.336-50.164-27.787
		c-2.163-1.364-7.147-5.715-8.36-14.39c-7.811-55.867,7.644-242.218,7.644-242.218l12.173-242.569L2610.248,1383.662z"/>
	<path style="fill:#F7A491;" d="M2531.068,1432.041c-5.563,1.403-14.129,199.152-18.736,207.917
		c-29.215,55.565-36.158,224.497-36.158,224.497l-8.714,24.586l-8.853,29.214c0,0,29.16,7.488,44.458-0.931l-1.697-29.08
		l-1.553-26.595l73.706-210.467l40.33-214.676L2531.068,1432.041z"/>
	<path style="fill:#355389;" d="M2677.655,1048.975c-11.89-16.196-60.944-63.113-66.394-63.017
		c-15.887,0.277-68.032,0.297-78.227,5.458l0.492,89.316c1.662,7.496,37.66,124.274,35.57,149.837l0.248,0.239
		c30.172,29.037,77.755,26.756,105.349-5.051l0,0c0,0-0.12-35.424,4.129-67.737
		C2685.479,1107.398,2707.189,1089.209,2677.655,1048.975z"/>
	<path style="fill:#13375B;" d="M2720.904,1533.266l3.505-136.442c0.606-38.562-7.277-76.778-23.082-111.894l-26.634-59.173
		c-10.773,3.415-20.928,6.324-32.251,7.59c-24.629,2.756-48.854,0.021-73.345-2.778c-0.075,0.925-0.188,1.731-0.338,2.411
		c-4.444,20.094-29.2,64.891-39.629,126.12c-11.838,69.503-14.93,165.864-13.449,174.021
		C2584.241,1549.113,2654.511,1549.641,2720.904,1533.266z"/>
	<path style="fill:#F7A491;" d="M2595.276,935.678c0,0,1.374,32.952-1.596,45.445c-2.97,12.493-6.93,13.438,18.565,17.239
		c10.014,1.493,19.672,3.722,19.672,3.722s-2.617-18.347-3.012-26.091c-0.652-12.754,2.946-52.141,2.946-52.141L2595.276,935.678z"
		/>
	<path style="fill:#F47458;" d="M2614.691,952.076c5.245,2.826,10.145,4.494,14.663,5.187c0.867-15.559,2.498-33.412,2.498-33.412
		l-34.895,11.282C2601.009,941.873,2606.765,947.806,2614.691,952.076z"/>
	<path style="fill:#F47458;" d="M2501.361,1888.125c-13.456,5.974-27.94,2.371-33.768,0.466l-1.936,5.194l-7.42,24.656
		c0,0,29.529,7.302,44.827-1.117L2501.361,1888.125z"/>
	<path style="fill:#F47458;" d="M2650.868,1918.827h102.427c3.788-0.341,4.712-3.427,3.397-5.329
		c-2.704-3.915-14.653-6.787-28.084-13.026c-23.559,2.475-72.993-13.735-76.711-19.184
		C2649.751,1892.197,2648.764,1918.361,2650.868,1918.827z"/>
	<g>
		<path style="fill:#FAE0B2;" d="M2609.532,1353.151l12.754-0.257l-7.187-335.812c13.364,2.39,24.56,11.983,28.354,24.952
			l88.738,303.246l12.273-3.367l-88.737-303.245c-5.947-20.322-25.337-34.515-47.153-34.515h-6.512L2609.532,1353.151z"/>
	</g>
	<g>
		<path style="fill:#F8A492;" d="M2796.648,1088.987c0.385-1.896-0.851-5.784,1.749-20.668c0.751-4.296,4.794-8.994,4.794-8.994
			s5.018-5.736,6.712-4.919s2.262,3.126,1.767,4.527c-0.494,1.401-2.766,3.434-3.26,4.834c-0.495,1.402,1.441,5.748,2.663,6.972
			c1.221,1.225,15.436-16.182,15.436-16.182s3.836-5.189,4.974-7.017c0.971-1.558,3.511-6.461,3.511-6.461s3.998-6.77,6.042-5.371
			c1.205,0.825-0.659,7.851-3.563,14.286c-3.126,6.933-7.339,13.296-6.748,13.797c1.384,1.18,9.41-8.183,9.41-8.183
			s2.756-5.302,4.661-7.138c1.149-3.556,4.649-8.645,7.021-6.771c0.438,0.346-2.312,8.68-2.312,8.68s-2.764,4.955-3.935,7.403
			c-2.065,4.319-6.864,9.446-8.489,12.248c-1.353,2.329-0.183,2.049-0.066,2.337c0.09,0.223,2.339-2.568,5.49-6.338
			c1.588-1.899,3.791-3.68,5.288-6.186c1.387-2.319,3.754-5.217,5.222-6.925c4.158-4.835,6.497-1.294,3.364,3.863
			c-1.194,1.964-2.511,4.092-3.854,6.242c-5.22,8.362-11.74,14.778-11.075,15.623c0.862,1.098,12.042-11.344,12.042-11.344
			s7.959-4.936,3.322,2.675c-5.381,8.83-11.285,14.358-11.561,14.587c-1.868,1.547-6.774,9.022-14.118,13.353
			c-5.414,3.192-13.314,7.558-17.094,9.633L2796.648,1088.987z"/>
		<path style="fill:#F7A491;" d="M2630.666,1114.213l37.922-20.918c0,0,20.248,30.457,23.249,33.49
			c0,0,75.868-24.726,104.812-37.798l17.83,18.36c-5.551,2.684-10.355,4.481-13.008,5.91c-5.207,2.805-87.62,48.586-87.62,48.586
			s-33.713,16.828-39.401,12.961C2668.76,1170.938,2630.666,1114.213,2630.666,1114.213z"/>
	</g>
	<path style="fill:#3C8F7C;" d="M2588.921,1029.563c-7.377,30.268,31.968,97.751,31.968,97.751s56.049-26.354,65.9-37.711
		c0,0-38.078-65.486-40.573-69.468c-11.298-18.025-26.638-18.047-36.64-16.871
		C2601.546,1004.208,2588.921,1029.563,2588.921,1029.563z"/>
	<path style="fill:#184655;" d="M2588.709,1038.899c25.938-22.562,35.723-72.305,18.803-101.939
		c11.752-15.242,19.286-12.523,16.665-31.484c-5.171-37.402,47.061-59.923,8.046-69.871c-39.428-7.88-72.223,16.257-90.255,40.233
		c-8.125,10.803-18.237,20.144-30.259,26.713c-23.814,13.013-36.375,44.243-23.727,76.796c-19.071,10.662-35.721,41.495-23.1,67.092
		c3.029,6.145,9.15,13.336,9.34,15.098c-0.363-2.168-17.766,54.924,47.227,74.366
		C2587.77,1155.743,2601.424,1092.3,2588.709,1038.899z"/>
	<path style="fill:#F7A491;" d="M2618.064,853.667c0,0-14.466,4.852-22.177,19.408c-7.71,14.556-3.878,61.167,28.204,76.539
		c32.082,15.371,46.828-19.535,44.5-45.293C2666.266,878.563,2656.974,844.858,2618.064,853.667z"/>
	<path style="fill:#184655;" d="M2584.486,908.349c-4.746-24.089-2.888-42.345,14.285-51.16
		c17.174-8.815,31.853-17.555,47.223-1.711l3.473,1.952c0,0-28.999,7.987-30.617,23.336c-1.619,15.349-17.036,33.594-14.662,41.132
		c2.373,7.539,5.112,22.573,5.112,22.573l-6.351-5.204C2602.949,939.266,2589.232,932.438,2584.486,908.349z"/>
	<path style="fill:#F7A491;" d="M2614.379,899.129c2.396,6.652,0.586,13.331-4.044,14.917c-4.629,1.586-10.324-2.521-12.72-9.174
		c-2.396-6.652-0.586-13.331,4.043-14.917C2606.288,888.369,2611.983,892.477,2614.379,899.129z"/>
	<path style="fill:#FFFFFF;" d="M2640.555,924.813l20.914,5.081c0,0-2.412,7.826-11.673,5.858
		C2638.502,933.352,2640.555,924.813,2640.555,924.813z"/>
	<path style="fill:#EAB054;" d="M2609.338,1351.559v42.937c0,22.322,18.694,40.421,41.75,40.421h42.95v-100.095h-67.413
		c-4.615,0-8.803,1.751-11.9,4.606C2611.405,1342.465,2609.338,1346.776,2609.338,1351.559z"/>
	<path style="fill:#F7CC7F;" d="M2614.725,1339.428h0.285c8.86,0,16.043,6.954,16.043,15.531v31.585
		c0,26.716,22.369,48.372,49.963,48.372h26.148c27.594,0,49.963-21.656,49.963-48.372v-31.429c0-11.208-9.385-20.294-20.961-20.294
		h-109.541C2622.01,1334.821,2617.822,1336.572,2614.725,1339.428z"/>
</g>
<g>
	<path style="fill:#FFFFFF;" d="M1732.354,1552.076c1.347,27.027-19.471,50.028-46.498,51.376
		c-27.027,1.347-50.028-19.472-51.375-46.498c-1.348-27.027,19.471-50.028,46.497-51.376
		C1708.005,1504.231,1731.007,1525.049,1732.354,1552.076z"/>
	<path style="fill:#50BFA5;" d="M1727.781,1552.304c1.221,24.502-17.651,45.354-42.153,46.576
		c-24.502,1.221-45.354-17.651-46.576-42.153c-1.221-24.502,17.652-45.355,42.154-46.576
		C1705.707,1508.93,1726.561,1527.803,1727.781,1552.304z"/>
	<polygon style="fill:#FFFFFF;" points="1686.71,1524.674 1677.778,1525.026 1678.776,1550.281 1653.535,1551.599 
		1654.002,1560.525 1679.13,1559.215 1680.123,1584.356 1689.055,1584.004 1688.057,1558.748 1713.298,1557.432 1712.832,1548.505 
		1687.704,1549.816 	"/>
</g>
<g>
	<path style="fill:#13375B;" d="M1852.317,1095.318l-3.184,2.86c-1.638,1.472-4.104,1.409-5.507-0.138l-56.516-62.341
		c-1.403-1.548-1.213-3.995,0.426-5.466l3.184-2.861c1.639-1.472,4.104-1.41,5.507,0.139l56.516,62.34
		C1854.146,1091.399,1853.956,1093.847,1852.317,1095.318z"/>
	<path style="fill:#F7A491;" d="M2043.924,1044.672c-7.554-6.163-65.971,19.558-65.229,28.512s-40.764,95.753-40.764,95.753
		l-71.723-57.384l-0.029,0.019c-0.635-2.076-7.434-24.394-7.765-28.386c-0.347-4.188-12.466-11.516-18.096-10.438
		c-5.629,1.079,4.814,8.164,5.5,9.465c1.866,3.54-5.35,4.869-5.35,4.869s-20.723-11.413-21.164-18.124
		c-0.439-6.711-4.718-20.779-9.194-17.836c-2.311,1.519-2.29,11.499-1.568,16.234c-1.331-5.375-3.216-11.446-5.051-12.048
		c-3.353-1.099-5.02,3.181-4.411,5.281c0.609,2.101,6.022,24.925,7.668,27.493c1.606,2.509,35.073,29.564,39.895,35.437
		c0,0,92.771,106.415,99.377,109.199c5.796,2.441,26.461-34.23,45.984-58.576C2011.528,1149.797,2067.529,1063.93,2043.924,1044.672
		z"/>
	<path style="fill:#F48C7F;" d="M2231.113,1827.143c0,0,12.749,12.481,13.038,17.062c0.289,4.581,1.129,53.653-4.075,58.233
		c-5.204,4.581-20.49,7.829-15.576,12.982c3.714,3.895,32.291,3.062,51.23,2.016c5.527-0.305,12.461-44.565,14.65-51.071
		c3.181-9.447,10.914-30.729,8.023-37.313c-1.41-3.209-8.148-9.803-17.646-15.958c-9.989-6.474-19.546-20.887-19.546-20.887
		L2231.113,1827.143z"/>
	<path style="fill:#F7A491;" d="M2099.057,1856.207c0,0,11.408,32.338,11.422,32.421c0.848,5.124,4.188,17.781,4.188,22.438
		c0,17.497-78.64-14.853-61.016-22.606c1.596-0.702,6.6-6.308,7.125-12.263c0.809-9.176-6.625-20.684-6.625-20.684
		L2099.057,1856.207z"/>
	<g>
		<path style="fill:#355389;" d="M1975.689,1254.039c0,0-5.733,57.972-5.733,58.836c0,93.777-18.526,276.956-15.003,294.586
			c8.595,43.004,101.103,262.374,101.103,262.374l49.998-5.996l-65.152-262.649l23.976-105.718l33.927-208.971L1975.689,1254.039z"
			/>
		<path style="fill:#13375B;" d="M2143.488,1305.314l9.487,54.945l25.668,226.131l97.751,221.009c0,0-13.75,32.158-34.035,36.676
			l-155.578-226.909l-96.643-290.35l3.394-64.505L2143.488,1305.314z"/>
	</g>
	<path style="fill:#E25A44;" d="M1955.749,1116.011l69.33,7.102c0,0,3.18-57.03,3.18-84.234c0-33.005-2.802-75.516-6.773-74.602
		c-11.148,2.568-26.163,8.744-35.102,21.068C1955.453,1027.987,1955.749,1116.011,1955.749,1116.011z"/>
	<path style="fill:#F47458;" d="M1989.809,1033.057c-1.452,10.063-28.104,283.633-28.104,283.633
		c126.235,61.176,195.892,10.897,195.892,10.897s-4.131-192.104,0.819-218.253c3.275-17.3,7.36-132.253-3.813-135.473
		c-14.337-4.131-30.775-8.519-48.694-10.385c-15.295-1.593-74.71-2.516-85.34,1.066
		C2020.569,964.542,1995.915,990.739,1989.809,1033.057z"/>
	<path style="fill:#F7CC7F;" d="M2280.141,1812.782c0,0-29.382,83.008-40.883,87.016c-3.053,1.063-17.707,3.763-20.471,10.266
		c-0.833,1.959,0,8.501,0,8.501h61.241c0,0,7.745-36.573,10.807-52.643c0,0,16.212-39.264,14.41-42.832
		C2303.443,1819.522,2280.141,1812.782,2280.141,1812.782z"/>
	<path style="fill:#F7CC7F;" d="M2119.14,1916.84l-9.007-28.546c0,0-18.912,8.028-28.368,6.69c-9.457-1.338-27.919-6.69-27.919-6.69
		c-37.746,12.466-68.668,18.517-63.043,28.546l0,0H2119.14z"/>
	<g>
		<path style="fill:#F7A491;" d="M1946.02,1232.719c-0.285-0.121-1.313-0.931-1.904-1.42c2.245-26.802,1.84-52.772-6.543-61.553
			c0.2-0.421,2.034-4.329,3.947-8.382c9.716,7.54,14.331,27.571,12.52,60.087c-0.124,2.236-0.765,3.943-1.281,6.733
			C1949.944,1231.29,1947.388,1233.295,1946.02,1232.719z"/>
	</g>
	<path style="fill:#F8A492;" d="M2282.622,1319.588c0.078-0.586,0.089-1.174,0.03-1.762
		c-1.859-18.945-17.536-178.034-20.177-184.797c-2.384-6.105-72.692-107.007-72.692-107.007l-34.559,47.241l67.619,90.502
		c1.516,5.751,25.911,113.144,25.911,113.144s5.001,19.575,7.241,31.301c-1.021,2.825-2.023,5.493-2.913,7.683
		c-2.241,4.679-4.884,8.519-7.286,11.749c-3.022,4.065-8.019,12.946-8.635,15.322c-0.716,2.763-2.007,8.505-2.737,11.97
		c-0.731,3.466-1.732,7.501-1.9,9.382c-0.102,1.145-1.278,3.427-2.185,5.04c-1.35,2.401,0.953,5.236,3.561,4.367
		c2.457-0.819,4.37-4.01,5.549-5.998c3.327-5.612,5.102-15.859,5.929-15.316c0.827,0.542,3.743,17.928,4.204,19.893
		c0.461,1.966,3.959,22.153,5.933,25.844c1.974,3.688,4.586,3.072,5.278,0.762c0.596-1.989-2.179-30.236-2.179-30.236
		s-0.347-3.603,1.227-2.477c1.572,1.126,4.143,26.767,5.237,30.519c1.094,3.751,3.586,5.741,5.702,2.726
		c2.573-3.668-1.853-30.865-1.853-30.865s-0.495-3.419,0.961-3.102c1.455,0.318,3.278,22.172,4.411,24.063
		c1.133,1.889,3.992,2.567,5.355-0.583c1.605-3.711-2.554-27.956-2.554-27.956s0.205-1.931,1.112-1.289
		c0.908,0.641,3.79,19.157,5.668,20.872c1.576,1.44,2.891,0.043,2.891,0.043c3.446-2.359-1.837-19.974-1.785-28.732
		c0.052-8.758-3.996-18.6-2.788-29.027C2282.274,1322.204,2282.487,1320.599,2282.622,1319.588z"/>
	<path style="fill:#F47458;" d="M2244.713,1089.928l-60.06,40.461c0,0-33.851-50.544-52.021-68.537
		c-22.764-22.542,8.291-91.594,22.957-87.688C2188.395,982.902,2244.713,1089.928,2244.713,1089.928z"/>
	<path style="fill:#F7A491;" d="M2101.495,904.332l8.983,59.411c0,0-32.807,70.74-52.392,64.604
		c-16.433-5.147-6.323-67.739-6.323-67.739s8.957-33.614,6.271-50.435C2055.349,893.353,2101.495,904.332,2101.495,904.332z"/>
	<path style="fill:#F47458;" d="M2058.035,910.174c-2.687-16.821,43.46-5.842,43.46-5.842l0.745,4.927
		c-1.351,3.297-3.001,6.118-5.004,8.281c-10.309,11.131-26.42,17.816-40.351,18.322
		C2058.279,926.792,2059.136,917.071,2058.035,910.174z"/>
	<g>
		<path style="fill:#F7A491;" d="M2109.066,820.281c1.304-0.476,10.455,67.665-6.91,86.414
			c-17.363,18.749-51.195,24.885-63.33,10.119c-13.423-16.333-12.748-89.569,14.248-108.856
			C2080.071,788.671,2109.066,820.281,2109.066,820.281z"/>
		<path style="fill:#184655;" d="M2063.352,771.508c20.867,4.269,34.385,17.065,39.35,22.518
			c9.475,1.122,22.354,6.377,35.652,28.471c16.352,27.166,4.275,57.262-14.76,72.029c-19.034,14.767-18.77,31.824-18.77,31.824
			l-3.009-8.823c-2.221-6.684-3.128-13.771-2.384-20.781c0.445-4.206,1.343-8.755,3.078-12.495
			c4.578-9.862-9.834-16.414-13.875-24.618c-3.111-6.318-3.263-20.771-8.165-31.214l-5.854-7.972c0,0-13.508-10.547-26.723-7.571
			C2034.678,815.853,2036.579,766.03,2063.352,771.508z"/>
		<path style="fill:#F7A491;" d="M2089.522,871.759c-0.138,8.314,3.629,15.12,8.413,15.202c4.783,0.082,8.773-6.591,8.911-14.904
			c0.138-8.314-3.628-15.12-8.412-15.202C2093.65,856.773,2089.66,863.446,2089.522,871.759z"/>
	</g>
	<path style="fill:#FFFFFF;" d="M2061.324,890.969l-26.173-1.36c0,0,0.089,10.006,11.581,10.938
		C2060.746,901.683,2061.324,890.969,2061.324,890.969z"/>
</g>
<rect x="69.753" y="1915.96" transform="matrix(-1 -1.224647e-16 1.224647e-16 -1 3230.7534 3849.665)" style="fill:#184655;" width="3091.247" height="17.745"/>
</svg>
